<?xml version="1.0" standalone="no"?>
<!DOCTYPE svg PUBLIC "-//W3C//DTD SVG 1.1//EN" "http://www.w3.org/Graphics/SVG/1.1/DTD/svg11.dtd" >
<svg xmlns="http://www.w3.org/2000/svg" xmlns:xlink="http://www.w3.org/1999/xlink" version="1.1">
<metadata>
Created by FontForge 20161003 at Mon Nov 20 23:30:12 2017
 By www-data
2013 published by FontShop International GmbH
</metadata>
<defs>
<font id="MarkExtralight" horiz-adv-x="1200" >
  <font-face 
    font-family="MarkExtralight"
    font-weight="300"
    font-stretch="normal"
    units-per-em="2000"
    panose-1="2 0 4 0 0 0 0 0 0 0"
    ascent="1580"
    descent="-420"
    x-height="933"
    cap-height="1400"
    bbox="-900 -480 2147 1871"
    underline-thickness="64"
    underline-position="-324"
    unicode-range="U+0020-FEFF"
  />
<missing-glyph horiz-adv-x="1192" 
d="M190 1400h812v-1400h-812v1400zM938 64v1272h-684v-1272h684z" />
    <glyph glyph-name="ellipsis" unicode="&#x2e;&#x2e;&#x2e;" horiz-adv-x="1307" 
d="M258 111q24 0 42 -17.5t18 -42.5q0 -24 -18 -42t-42 -18t-42 18t-18 42q0 25 18 42.5t42 17.5zM654 111q24 0 41.5 -17.5t17.5 -42.5q0 -24 -17.5 -42t-41.5 -18t-42 18t-18 42q0 25 18 42.5t42 17.5zM1049 111q24 0 42 -17.5t18 -42.5q0 -24 -18 -42t-42 -18t-42 18
t-18 42q0 25 18 42.5t42 17.5z" />
    <glyph glyph-name=".notdef" horiz-adv-x="1192" 
d="M190 1400h812v-1400h-812v1400zM938 64v1272h-684v-1272h684z" />
    <glyph glyph-name=".null" unicode="&#xe000;" horiz-adv-x="0" 
 />
    <glyph glyph-name="nonmarkingreturn" horiz-adv-x="666" 
 />
    <glyph glyph-name="space" unicode=" " horiz-adv-x="526" 
 />
    <glyph glyph-name="exclam" unicode="!" horiz-adv-x="516" 
d="M293 423h-70v977h70v-977zM258 111q24 0 42 -17.5t18 -42.5q0 -24 -18 -42t-42 -18t-42 18t-18 42q0 25 18 42.5t42 17.5z" />
    <glyph glyph-name="quotedbl" unicode="&#x22;" horiz-adv-x="968" 
d="M375 1440v-456h-70v456h70zM661 1440v-456h-70v456h70z" />
    <glyph glyph-name="numbersign" unicode="#" horiz-adv-x="1446" 
d="M503 1016l82 384h65l-82 -384h446l82 384h65l-82 -384h236l-14 -63h-235l-107 -500h236l-14 -63h-235l-83 -390h-65l83 390h-446l-83 -390h-65l83 390h-239l14 63h238l107 500h-239l13 63h239zM448 453h446l107 500h-446z" />
    <glyph glyph-name="dollar" unicode="$" horiz-adv-x="1400" 
d="M737 1591v-193q265 -11 454 -147l-37 -58q-181 126 -417 137v-594l81 -9q191 -21 296 -108.5t105 -233.5q-1 -121 -66.5 -207t-171.5 -128.5t-244 -48.5v-195h-65v194q-131 4 -267 51t-220 109l39 57q73 -56 199.5 -100.5t248.5 -48.5v605l-60 7q-197 21 -295.5 111.5
t-98.5 230.5q0 169 128 269.5t326 106.5v193h65zM737 666v-597q184 9 297 88t113 225q1 117 -89.5 188t-269.5 91zM291 1024q0 -111 84.5 -185t270.5 -93l26 -3v587q-169 -6 -275 -87.5t-106 -218.5z" />
    <glyph glyph-name="percent" unicode="%" horiz-adv-x="1878" 
d="M444 1411q147 0 246 -98t99 -244t-99 -244t-246 -98q-144 0 -241.5 98t-97.5 244t97.5 244t241.5 98zM444 1349q-117 0 -195.5 -80t-78.5 -200q0 -121 78.5 -200.5t195.5 -79.5q120 0 199.5 79.5t79.5 200.5t-79.5 200.5t-199.5 79.5zM534 0h-73l883 1400h73zM1429 673
q147 0 246 -98t99 -244t-99 -244t-246 -98q-144 0 -242 98t-98 244t98 244t242 98zM1429 611q-117 0 -195.5 -79.5t-78.5 -200.5t78.5 -200.5t195.5 -79.5q120 0 199.5 79.5t79.5 200.5t-79.5 200.5t-199.5 79.5z" />
    <glyph glyph-name="ampersand" unicode="&#x26;" horiz-adv-x="1345" 
d="M1200 0l-269 265q-46 -63 -87 -107.5t-95 -85.5t-118.5 -62t-138.5 -21q-165 0 -267 89.5t-102 236.5q0 58 18.5 112.5t44.5 95t72 86t81.5 74.5t92.5 71q-85 83 -128.5 135t-69.5 110.5t-26 123.5q0 119 87.5 203.5t218.5 84.5q130 0 217.5 -81.5t87.5 -197.5
q0 -48 -16.5 -94t-39.5 -80.5t-64.5 -74.5t-74 -66.5t-85.5 -65.5l385 -379l248 357l56 -35l-255 -370l328 -324h-101zM496 55q83 0 154.5 35.5t122 87.5t109.5 135l-402 395q-69 -52 -108 -85.5t-85 -84.5t-67.5 -105t-21.5 -116q0 -115 83.5 -188.5t214.5 -73.5zM283 1119
q0 -75 44 -139.5t164 -182.5q61 45 97.5 76t77.5 74.5t60 88t19 93.5q0 91 -65.5 153.5t-165.5 62.5t-165.5 -65.5t-65.5 -160.5z" />
    <glyph glyph-name="quotesingle" unicode="'" horiz-adv-x="682" 
d="M375 1440v-456h-70v456h70z" />
    <glyph glyph-name="parenleft" unicode="(" horiz-adv-x="776" 
d="M688 1351q-202 -70 -329.5 -287.5t-127.5 -495.5q0 -183 58 -345.5t162 -277t237 -159.5l-23 -65q-224 75 -366 311t-142 536q0 302 142 536.5t366 311.5z" />
    <glyph glyph-name="parenright" unicode=")" horiz-adv-x="776" 
d="M88 -214q133 45 237 160t162 278t58 345q0 183 -58 345.5t-162 277t-237 159.5l23 65q146 -50 261.5 -173t181 -299.5t65.5 -374.5q0 -301 -143 -537.5t-365 -310.5z" />
    <glyph glyph-name="asterisk" unicode="*" horiz-adv-x="828" 
d="M388 1166v274h55v-274l259 85l17 -53l-259 -84l161 -222l-45 -32l-161 221l-161 -221l-44 32l161 221l-261 85l17 53z" />
    <glyph glyph-name="plus" unicode="+" 
d="M564 112v380h-379v64h379v386h65v-386h386v-64h-386v-380h-65z" />
    <glyph glyph-name="comma" unicode="," horiz-adv-x="480" 
d="M309 218l-85 -456h-61l66 456h80z" />
    <glyph glyph-name="hyphen" unicode="-" horiz-adv-x="830" 
d="M677 492h-524v64h524v-64z" />
    <glyph glyph-name="period" unicode="." horiz-adv-x="516" 
d="M258 109q24 0 42 -18t18 -42t-18 -42t-42 -18t-42 18t-18 42t18 42t42 18z" />
    <glyph glyph-name="slash" unicode="/" horiz-adv-x="973" 
d="M96 -200h-77l849 1740h77z" />
    <glyph glyph-name="zero" unicode="0" 
d="M601 1411q109 0 201 -45.5t160.5 -133t107 -223.5t38.5 -308q0 -347 -140.5 -529.5t-366.5 -182.5q-110 0 -201.5 44.5t-160.5 130.5t-108 223.5t-39 313.5q0 175 39 312t108 223t161 130.5t201 44.5zM601 1342q-195 0 -315 -163.5t-120 -477.5q0 -315 120 -479t315 -164
q194 0 313.5 164t119.5 479q0 309 -120 475t-313 166z" />
    <glyph glyph-name="one" unicode="1" 
d="M621 68v1244l-449 -161v74l520 185v-1342h407v-68h-917v68h439z" />
    <glyph glyph-name="two" unicode="2" 
d="M160 1182q138 229 404 229q134 0 231.5 -56t145 -148.5t47.5 -207.5q0 -117 -51 -213t-138 -187l-508 -531h755v-68h-862v56l560 585q170 175 170 358q0 148 -93 245.5t-259 97.5q-225 0 -349 -202z" />
    <glyph glyph-name="three" unicode="3" 
d="M553 1411q196 0 320 -103t124 -262q0 -128 -63.5 -213t-175.5 -125q122 -37 196 -126t74 -211q0 -94 -39 -168.5t-104.5 -120t-147 -69.5t-172.5 -24q-255 0 -418 163l47 49q147 -144 369 -144q105 0 191.5 32.5t142.5 105.5t56 176q0 137 -110.5 219.5t-274.5 82.5h-204
v70h204q156 0 255.5 79t99.5 224q0 130 -105.5 213.5t-269.5 83.5q-108 0 -196 -46.5t-146 -123.5l-52 44q66 89 167 141.5t232 52.5z" />
    <glyph glyph-name="four" unicode="4" 
d="M860 391h271v-68h-271v-323h-72v323h-693v56l523 1020h81l-518 -1008h607v408h72v-408z" />
    <glyph glyph-name="five" unicode="5" 
d="M989 1332h-660l-21 -514h235q242 0 371.5 -111t129.5 -290q0 -196 -129.5 -312t-333.5 -116q-286 0 -457 211l49 46q152 -188 408 -188q178 0 283.5 98t105.5 255q0 154 -113 246.5t-334 92.5h-284l24 650h726v-68z" />
    <glyph glyph-name="six" unicode="6" 
d="M358 820q111 57 241 57q208 0 344.5 -127t136.5 -317q0 -191 -136.5 -317.5t-344.5 -126.5t-345 127t-137 317q0 128 75 252l434 715h88zM599 810q-177 0 -292.5 -107t-115.5 -270t115.5 -270t292.5 -107t292 107t115 270t-115 270t-292 107z" />
    <glyph glyph-name="seven" unicode="7" 
d="M1074 1344l-668 -1344h-83l665 1332h-848v68h934v-56z" />
    <glyph glyph-name="eight" unicode="8" 
d="M601 1411q129 0 234 -41.5t169 -125.5t64 -198q0 -127 -72 -213t-191 -124q134 -38 215.5 -125t81.5 -216q0 -120 -68.5 -207t-180.5 -129.5t-252 -42.5t-252 42.5t-181 129.5t-69 207q0 129 81.5 216t215.5 125q-119 38 -191 123.5t-72 213.5q0 170 134 267.5t334 97.5z
M601 676q-119 0 -214.5 -34.5t-153.5 -105.5t-58 -168q0 -99 58 -171t153 -106.5t215 -34.5q183 0 304 82t121 230q0 97 -58 168t-153 105.5t-214 34.5zM601 1343q-170 0 -281.5 -78.5t-111.5 -219.5q0 -98 54 -168.5t141.5 -104t197.5 -33.5q169 0 280.5 80.5t111.5 225.5
q0 141 -111.5 219.5t-280.5 78.5z" />
    <glyph glyph-name="nine" unicode="9" 
d="M842 580q-111 -57 -241 -57q-208 0 -344.5 127t-136.5 317t136.5 317t344.5 127t345 -127t137 -317q0 -129 -75 -251l-435 -716h-87zM601 590q177 0 292.5 107t115.5 270t-115.5 270t-292.5 107t-292 -107.5t-115 -269.5t115 -269.5t292 -107.5z" />
    <glyph glyph-name="colon" unicode=":" horiz-adv-x="516" 
d="M258 944q24 0 42 -18t18 -42t-18 -42t-42 -18t-42 18t-18 42t18 42t42 18zM258 111q24 0 42 -17.5t18 -42.5q0 -24 -18 -42t-42 -18t-42 18t-18 42q0 25 18 42.5t42 17.5z" />
    <glyph glyph-name="semicolon" unicode=";" horiz-adv-x="480" 
d="M243 944q24 0 41.5 -18t17.5 -42t-17.5 -42t-41.5 -18t-42 18t-18 42t18 42t42 18zM309 218l-85 -456h-61l66 456h80z" />
    <glyph glyph-name="less" unicode="&#x3c;" 
d="M975 127l-750 363v70l750 362v-74l-680 -323l680 -323v-75z" />
    <glyph glyph-name="equal" unicode="=" 
d="M1015 327h-830v64h830v-64zM1015 657h-830v64h830v-64z" />
    <glyph glyph-name="greater" unicode="&#x3e;" 
d="M225 922l750 -363v-70l-750 -362v74l680 323l-680 323v75z" />
    <glyph glyph-name="question" unicode="?" horiz-adv-x="829" 
d="M233 423v303h31q186 0 295.5 84.5t109.5 226.5q0 137 -111 220t-285 83q-61 0 -108 -6l-6 71q56 8 117 8q208 0 339 -102.5t131 -271.5q0 -165 -119 -266t-326 -113l-4 -237h-64zM265 109q24 0 42 -18t18 -42t-18 -42t-42 -18t-42 18t-18 42t18 42t42 18z" />
    <glyph glyph-name="at" unicode="@" horiz-adv-x="1983" 
d="M1367 372q0 -208 141 -208q101 0 164.5 100t63.5 263q0 211 -99 374.5t-268 251t-377 87.5q-154 0 -292 -57.5t-237.5 -156t-157.5 -236t-58 -290.5q0 -156 58 -295t157.5 -238.5t237.5 -157.5t292 -58q249 0 453 147l33 -46q-217 -158 -486 -158q-168 0 -318 63
t-257.5 170.5t-170.5 257t-63 315.5q0 164 63 312t170.5 254.5t257.5 169t318 62.5q225 0 409 -96t291.5 -273t107.5 -402q0 -181 -81.5 -301t-213.5 -120q-83 0 -133.5 46.5t-62.5 132.5q-49 -83 -134.5 -131t-195.5 -48q-167 0 -279.5 113t-112.5 281t112.5 281t279.5 113
q109 0 193.5 -48t133.5 -131v169h61v-512zM979 836q-142 0 -235.5 -96t-93.5 -240t93.5 -240t235.5 -96t236 96t94 240t-94 240t-236 96z" />
    <glyph glyph-name="A" unicode="A" horiz-adv-x="1386" 
d="M1342 0h-80l-186 433h-768l-186 -433h-78l604 1400h90zM338 504h707l-353 820z" />
    <glyph glyph-name="B" unicode="B" horiz-adv-x="1397" 
d="M758 1400q226 0 354 -87.5t128 -271.5q0 -119 -63.5 -201t-176.5 -121q128 -39 197.5 -125.5t69.5 -217.5q0 -191 -129.5 -283.5t-360.5 -92.5h-559v1400h540zM292 681v-611h482q416 0 416 306q0 305 -416 305h-482zM292 1330v-578h464q406 0 406 289t-406 289h-464z" />
    <glyph glyph-name="C" unicode="C" horiz-adv-x="1526" 
d="M841 1411q176 0 326.5 -76.5t232.5 -208.5l-62 -42q-76 118 -208.5 187t-288.5 69q-176 0 -319.5 -79t-228 -226t-84.5 -335t84.5 -335t228 -226t319.5 -79q156 0 288 68t209 187l61 -44q-87 -131 -235 -206.5t-323 -75.5q-198 0 -360 89t-256 252t-94 370t94 370
t256 252t360 89z" />
    <glyph glyph-name="D" unicode="D" horiz-adv-x="1609" 
d="M707 1400q360 0 566 -187t206 -513t-206 -513t-566 -187h-489v1400h489zM292 1329v-1258h415q331 0 513 167.5t182 461.5t-182 461.5t-513 167.5h-415z" />
    <glyph glyph-name="E" unicode="E" horiz-adv-x="1330" 
d="M1155 0h-937v1400h933v-70h-859v-590h837v-70h-837v-600h863v-70z" />
    <glyph glyph-name="F" unicode="F" horiz-adv-x="1279" 
d="M1121 670h-829v-670h-74v1400h930v-71h-856v-589h829v-70z" />
    <glyph glyph-name="G" unicode="G" horiz-adv-x="1635" 
d="M841 1411q162 0 303.5 -65t238.5 -180l-55 -52q-88 106 -215 166t-272 60q-176 0 -319.5 -79t-228 -226t-84.5 -335t84.5 -335t227.5 -226t317 -79q261 0 420 162.5t167 433.5h-522v70h602v-23q0 -207 -81.5 -369t-233.5 -253.5t-352 -91.5q-142 0 -270.5 50.5
t-225.5 141t-154 225.5t-57 294q0 206 94.5 369.5t256.5 252.5t359 89z" />
    <glyph glyph-name="H" unicode="H" horiz-adv-x="1554" 
d="M292 740h968v660h75v-1400h-75v670h-968v-670h-74v1400h74v-660z" />
    <glyph glyph-name="I" unicode="I" horiz-adv-x="511" 
d="M292 0h-74v1400h74v-1400z" />
    <glyph glyph-name="J" unicode="J" horiz-adv-x="1152" 
d="M944 505q0 -242 -135.5 -379t-348.5 -137q-245 0 -408 173l49 52q142 -153 359 -153q183 0 296 118t113 332v889h75v-895z" />
    <glyph glyph-name="K" unicode="K" horiz-adv-x="1340" 
d="M498 669h-206v-669h-74v1400h74v-661h207l658 661h97l-696 -692l738 -708h-102z" />
    <glyph glyph-name="L" unicode="L" horiz-adv-x="1193" 
d="M1149 0h-931v1400h74v-1329h857v-71z" />
    <glyph glyph-name="M" unicode="M" horiz-adv-x="1847" 
d="M1628 0h-75v1309l-591 -1129h-78l-592 1126v-1306h-74v1400h109l596 -1133l596 1133h109v-1400z" />
    <glyph glyph-name="N" unicode="N" horiz-adv-x="1558" 
d="M1339 0h-67l-979 1271l-1 -1271h-74v1400h67l979 -1271v1271h75v-1400z" />
    <glyph glyph-name="O" unicode="O" horiz-adv-x="1681" 
d="M841 1411q198 0 360 -89t256 -252t94 -370t-94 -370t-256 -252t-360 -89t-360 89t-256 252t-94 370t94 370t256 252t360 89zM841 1340q-176 0 -319.5 -79t-228 -226t-84.5 -335t84.5 -335t228 -226t319.5 -79q131 0 247 46.5t201 129t134.5 203t49.5 261.5t-49.5 261.5
t-134.5 203t-201 129t-247 46.5z" />
    <glyph glyph-name="P" unicode="P" horiz-adv-x="1334" 
d="M292 579v-579h-74v1400h509q230 0 362 -107.5t132 -302.5q0 -194 -132.5 -302.5t-361.5 -108.5h-435zM292 1329v-679h434q196 0 307 87.5t111 252.5q0 163 -111 251t-307 88h-434z" />
    <glyph glyph-name="Q" unicode="Q" horiz-adv-x="1681" 
d="M841 1411q198 0 360 -89t256 -252t94 -370q0 -268 -155 -456l199 -244h-88l-159 191q-97 -97 -227 -149.5t-280 -52.5q-198 0 -360 89t-256 252t-94 370t94 370t256 252t360 89zM841 1340q-176 0 -319.5 -79t-228 -226t-84.5 -335t84.5 -335t228 -226t319.5 -79
q136 0 254 49t206 140l-368 448h89l325 -394q126 169 126 397q0 141 -49.5 261.5t-134.5 203t-201 129t-247 46.5z" />
    <glyph glyph-name="R" unicode="R" horiz-adv-x="1327" 
d="M732 1400q228 0 353 -100t125 -282q0 -180 -127 -281.5t-350 -101.5h-94l563 -635h-93l-558 635h-259v-635h-74v1400h514zM292 1330v-627h442q192 0 295.5 81.5t103.5 233.5q0 150 -104 231t-295 81h-442z" />
    <glyph glyph-name="S" unicode="S" horiz-adv-x="1340" 
d="M1128 1195q-196 145 -460 145q-187 0 -305.5 -83.5t-118.5 -228.5q0 -243 366 -280l179 -19q205 -23 312.5 -105t107.5 -241q0 -97 -42.5 -173.5t-118 -124t-173 -72t-212.5 -24.5q-153 0 -296 49t-236 121l41 59q85 -65 216 -111.5t275 -46.5q100 0 184 19.5t148 57.5
t100.5 99.5t36.5 140.5q0 127 -92 193.5t-280 87.5l-183 19q-410 43 -410 347q0 121 67 210t179.5 133t255.5 44q285 0 497 -156z" />
    <glyph glyph-name="T" unicode="T" horiz-adv-x="1218" 
d="M1174 1329h-528v-1329h-74v1329h-528v71h1130v-71z" />
    <glyph glyph-name="U" unicode="U" horiz-adv-x="1500" 
d="M1303 542q0 -134 -43.5 -240.5t-119 -174t-175 -103t-215.5 -35.5t-216 35.5t-176 103t-119 174t-43 240.5v858h75v-853q0 -119 37 -213t102 -153t151.5 -89.5t188.5 -30.5t188 30.5t151 89.5t102 153t37 213v853h75v-858z" />
    <glyph glyph-name="V" unicode="V" horiz-adv-x="1373" 
d="M732 0h-90l-598 1400h80l563 -1323l565 1323h77z" />
    <glyph glyph-name="W" unicode="W" horiz-adv-x="2217" 
d="M1655 0h-89l-457 1302l-457 -1302h-89l-493 1400h79l459 -1316l461 1316h82l461 -1316l459 1316h76z" />
    <glyph glyph-name="X" unicode="X" horiz-adv-x="1381" 
d="M738 718l563 -718h-90l-521 662l-521 -662h-89l563 718l-534 682h91l491 -625l493 625h88z" />
    <glyph glyph-name="Y" unicode="Y" horiz-adv-x="1232" 
d="M654 619v-619h-74v619l-567 781h90l514 -710l515 710h87z" />
    <glyph glyph-name="Z" unicode="Z" horiz-adv-x="1343" 
d="M1207 1344l-977 -1273h982v-71h-1081v58l976 1271h-955v71h1055v-56z" />
    <glyph glyph-name="bracketleft" unicode="[" horiz-adv-x="721" 
d="M633 -263h-415v1663h415v-65h-344v-1533h344v-65z" />
    <glyph glyph-name="backslash" unicode="\" horiz-adv-x="973" 
d="M28 1540h77l849 -1740h-77z" />
    <glyph glyph-name="bracketright" unicode="]" horiz-adv-x="721" 
d="M88 1400h415v-1663h-415v65h344v1533h-344v65z" />
    <glyph glyph-name="underscore" unicode="_" horiz-adv-x="933" 
d="M938 -231h-943v64h943v-64z" />
    <glyph glyph-name="a" unicode="a" horiz-adv-x="1243" 
d="M1053 0h-69v218q-60 -106 -163.5 -167.5t-234.5 -61.5q-202 0 -337.5 136t-135.5 341q0 206 135.5 342t337.5 136q131 0 235 -61.5t163 -168.5v219h69v-933zM586 878q-174 0 -288 -118t-114 -294q0 -175 114.5 -293t287.5 -118t287.5 117.5t114.5 293.5
q0 177 -114.5 294.5t-287.5 117.5z" />
    <glyph glyph-name="b" unicode="b" horiz-adv-x="1243" 
d="M657 944q202 0 338 -136.5t136 -341.5t-136 -341t-338 -136q-131 0 -234.5 61.5t-162.5 166.5v-217h-70v1440h70v-725q60 106 163 167.5t234 61.5zM657 878q-173 0 -287.5 -117.5t-114.5 -294.5q0 -176 114.5 -293.5t287.5 -117.5q174 0 288 118t114 293
q0 176 -114.5 294t-287.5 118z" />
    <glyph glyph-name="c" unicode="c" horiz-adv-x="1021" 
d="M585 944q209 0 341 -143l-45 -47q-124 124 -298 124q-171 0 -285 -117.5t-114 -294.5t114 -294t285 -117q175 0 299 124l44 -47q-132 -143 -341 -143q-134 0 -242 62t-169 171.5t-61 243.5q0 205 134.5 341.5t337.5 136.5z" />
    <glyph glyph-name="d" unicode="d" horiz-adv-x="1243" 
d="M586 944q131 0 235 -61.5t163 -168.5v726h69v-1440h-69v218q-60 -106 -163.5 -167.5t-234.5 -61.5q-202 0 -337.5 136t-135.5 341q0 206 135.5 342t337.5 136zM586 878q-174 0 -288 -118t-114 -294q0 -175 114.5 -293t287.5 -118t287.5 117.5t114.5 293.5
q0 177 -114.5 294.5t-287.5 117.5z" />
    <glyph glyph-name="e" unicode="e" horiz-adv-x="1123" 
d="M574 944q185 0 309 -133t128 -338q0 -5 -0.5 -15t-0.5 -16h-824q8 -175 118.5 -281t277.5 -106q195 0 338 150l42 -48q-150 -168 -384 -168q-203 0 -334 134t-131 343q0 206 132.5 342t328.5 136zM573 878q-157 0 -265 -105t-122 -267h751q-10 161 -113 266.5t-251 105.5
z" />
    <glyph glyph-name="f" unicode="f" horiz-adv-x="890" 
d="M817 869h-441v-869h-69v869h-250v64h250v162q0 356 306 356q138 0 248 -70l-26 -58q-97 62 -218 62q-127 0 -184 -74.5t-57 -215.5v-162h441v-64z" />
    <glyph glyph-name="g" unicode="g" horiz-adv-x="1238" 
d="M585 944q128 0 231.5 -60t162.5 -162v211h69v-870q0 -93 -25.5 -171t-70.5 -133t-106.5 -93.5t-132 -56.5t-148.5 -18q-119 0 -222.5 39t-172.5 108l35 53q65 -64 158 -100t202 -36q83 0 156.5 25t131.5 73t92 127t34 180v150q-59 -101 -162.5 -161t-231.5 -60
q-202 0 -337 135.5t-135 341.5t135 342t337 136zM585 878q-174 0 -287.5 -118t-113.5 -294q0 -175 114 -293t287 -118t288 117.5t115 293.5t-115 294t-288 118z" />
    <glyph glyph-name="h" unicode="h" horiz-adv-x="1192" 
d="M260 755q52 87 142 138t206 51q188 0 297 -107t109 -290v-547h-69v547q0 151 -89.5 241t-253.5 90q-150 0 -246 -97t-96 -241v-540h-70v1440h70v-685z" />
    <glyph glyph-name="i" unicode="i" horiz-adv-x="450" 
d="M260 0h-70v933h70v-933zM225 1327q22 0 37 -15t15 -37t-15 -36.5t-37 -14.5t-36.5 14.5t-14.5 36.5t14.5 37t36.5 15z" />
    <glyph glyph-name="j" unicode="j" horiz-adv-x="451" 
d="M261 -206q0 -99 -44.5 -151t-131.5 -52q-69 0 -124 34l19 60q44 -28 99 -28q113 0 113 140v1136h69v-1139zM226 1327q22 0 37 -15t15 -37t-15 -36.5t-37 -14.5t-36.5 14.5t-14.5 36.5t14.5 37t36.5 15z" />
    <glyph glyph-name="k" unicode="k" horiz-adv-x="1023" 
d="M260 522h173l435 411h89l-470 -441l480 -492h-89l-446 458h-172v-458h-70v1440h70v-918z" />
    <glyph glyph-name="l" unicode="l" horiz-adv-x="450" 
d="M260 0h-70v1440h70v-1440z" />
    <glyph glyph-name="m" unicode="m" horiz-adv-x="1947" 
d="M1357 944q191 0 301.5 -107t110.5 -290v-547h-70v547q0 151 -89.5 241t-252.5 90q-150 0 -246.5 -97t-96.5 -241v-540h-69v547q0 151 -89.5 241t-253.5 90q-150 0 -246 -97t-96 -241v-540h-70v933h69v-179q52 87 142 138.5t207 51.5q140 0 237 -60t139 -170
q48 105 146 167.5t227 62.5z" />
    <glyph glyph-name="n" unicode="n" horiz-adv-x="1192" 
d="M608 944q188 0 297 -107t109 -290v-547h-69v547q0 151 -89.5 241t-253.5 90q-150 0 -246 -97t-96 -241v-540h-70v933h69v-179q52 87 142 138.5t207 51.5z" />
    <glyph glyph-name="o" unicode="o" horiz-adv-x="1178" 
d="M588 944q204 0 341 -137t137 -341t-137 -340.5t-341 -136.5q-203 0 -339 136.5t-136 340.5t136 341t339 137zM588 878q-172 0 -288 -117.5t-116 -294.5q0 -176 116 -293.5t288 -117.5q174 0 290.5 117t116.5 294t-116.5 294.5t-290.5 117.5z" />
    <glyph glyph-name="p" unicode="p" horiz-adv-x="1243" 
d="M657 944q202 0 338 -136.5t136 -341.5t-136 -341t-338 -136q-131 0 -234.5 61.5t-162.5 166.5v-617h-70v1333h70v-218q60 106 163 167.5t234 61.5zM657 878q-173 0 -287.5 -117.5t-114.5 -294.5q0 -176 114.5 -293.5t287.5 -117.5q174 0 288 118t114 293
q0 176 -114.5 294t-287.5 118z" />
    <glyph glyph-name="q" unicode="q" horiz-adv-x="1243" 
d="M586 944q131 0 235 -61.5t163 -168.5v219h69v-1333h-69v618q-60 -106 -163.5 -167.5t-234.5 -61.5q-202 0 -337.5 136t-135.5 341q0 206 135.5 342t337.5 136zM586 878q-174 0 -288 -118t-114 -294q0 -175 114.5 -293t287.5 -118t287.5 117.5t114.5 293.5
q0 177 -114.5 294.5t-287.5 117.5z" />
    <glyph glyph-name="r" unicode="r" horiz-adv-x="793" 
d="M556 944q104 0 180 -40l-19 -64q-68 39 -167 39q-132 0 -211.5 -98.5t-79.5 -244.5v-536h-69v933h69v-164q99 175 297 175z" />
    <glyph glyph-name="s" unicode="s" horiz-adv-x="961" 
d="M808 780q-56 41 -144 70t-185 29q-125 0 -204.5 -52t-79.5 -142q0 -148 241 -175l131 -14q299 -31 299 -239q0 -128 -108 -198t-285 -70q-221 0 -378 118l35 55q135 -108 344 -108q144 0 232.5 50.5t88.5 148.5q0 154 -242 178l-132 13q-153 15 -225.5 78t-72.5 160
q0 121 98.5 191t256.5 70q107 0 203 -30t160 -77z" />
    <glyph glyph-name="t" unicode="t" horiz-adv-x="903" 
d="M819 869h-463v-557q0 -128 62 -192.5t172 -64.5q134 0 224 79l35 -51q-106 -94 -264 -94q-143 0 -221 81.5t-78 240.5v558h-229v64h229v315h70v-315h463v-64z" />
    <glyph glyph-name="u" unicode="u" horiz-adv-x="1180" 
d="M1002 381q0 -182 -115.5 -287t-296.5 -105q-182 0 -296.5 104.5t-114.5 287.5v552h69v-546q0 -155 94 -243.5t248 -88.5t248 88.5t94 243.5v546h70v-552z" />
    <glyph glyph-name="v" unicode="v" horiz-adv-x="1016" 
d="M547 -4h-78l-430 937h76l393 -864l395 864h74z" />
    <glyph glyph-name="w" unicode="w" horiz-adv-x="1749" 
d="M1257 70l361 863h73l-394 -933h-81l-342 861l-342 -861h-80l-393 933h74l360 -863l343 863h78z" />
    <glyph glyph-name="x" unicode="x" horiz-adv-x="986" 
d="M539 478l409 -478h-86l-372 426l-370 -426h-82l408 477l-392 456h86l354 -408l355 408h83z" />
    <glyph glyph-name="y" unicode="y" horiz-adv-x="996" 
d="M187 -402h-78l369 618l-451 717h79l411 -648l383 648h77z" />
    <glyph glyph-name="z" unicode="z" horiz-adv-x="1078" 
d="M937 881l-711 -817h719v-64h-812v51l714 818h-693v64h783v-52z" />
    <glyph glyph-name="braceleft" unicode="{" horiz-adv-x="820" 
d="M658 1335q-110 0 -172 -69t-53 -210l10 -168q8 -136 -45 -215t-156 -104q103 -25 156 -104t45 -215l-10 -168q-9 -141 53 -210t172 -69h74v-65h-74q-146 0 -227.5 89.5t-69.5 261.5l11 168q8 142 -57.5 211t-183.5 69v64q118 0 183.5 69t57.5 211l-11 168
q-12 172 69.5 261.5t227.5 89.5h74v-65h-74z" />
    <glyph glyph-name="bar" unicode="|" horiz-adv-x="682" 
d="M375 -265h-70v1665h70v-1665z" />
    <glyph glyph-name="braceright" unicode="}" horiz-adv-x="820" 
d="M162 -197q111 0 172 68.5t53 210.5l-10 168q-9 135 44.5 214.5t156.5 104.5q-103 25 -156.5 104.5t-44.5 214.5l10 168q8 142 -53 210.5t-172 68.5h-74v65h74q146 0 227.5 -89.5t69.5 -261.5l-11 -168q-9 -141 57 -210.5t184 -69.5v-64q-118 0 -184 -69.5t-57 -210.5
l11 -168q12 -172 -69.5 -261.5t-227.5 -89.5h-74v65h74z" />
    <glyph glyph-name="uni00A0" unicode="&#xa0;" horiz-adv-x="526" 
 />
    <glyph glyph-name="exclamdown" unicode="&#xa1;" horiz-adv-x="516" 
d="M223 510h70v-977h-70v977zM258 822q-24 0 -42 17.5t-18 42.5q0 24 18 42t42 18t42 -18t18 -42q0 -25 -18 -42.5t-42 -17.5z" />
    <glyph glyph-name="sterling" unicode="&#xa3;" horiz-adv-x="1400" 
d="M1202 0h-1004v68h195v600h-195v64h195v212q0 112 34 202t93 147.5t136.5 87.5t166.5 30q231 0 355 -186l-53 -45q-103 162 -302 162q-158 0 -258 -104t-100 -298v-208h566v-64h-566v-600h737v-68z" />
    <glyph glyph-name="yen" unicode="&#xa5;" horiz-adv-x="1400" 
d="M1164 345h-426v-345h-72v345h-426v63h426v248h-426v63h402l-510 681h86l484 -645l482 645h85l-508 -681h403v-63h-426v-248h426v-63z" />
    <glyph glyph-name="section" unicode="&#xa7;" horiz-adv-x="1312" 
d="M1078 1204q-77 61 -185.5 101t-230.5 40q-169 0 -276.5 -69t-107.5 -188q0 -100 86 -159t249 -74l160 -15q79 -7 146 -28.5t121 -56.5t84.5 -88.5t30.5 -119.5q0 -174 -176 -260q156 -81 156 -231q0 -110 -67.5 -187t-176 -112t-246.5 -35q-147 0 -272.5 46.5
t-215.5 115.5l38 56q80 -64 196 -108t254 -44q186 0 302.5 66.5t116.5 196.5q0 100 -93 158.5t-245 73.5l-166 17q-173 16 -273 91.5t-100 201.5q0 170 173 256q-153 81 -153 235q0 150 129.5 238.5t325.5 88.5q135 0 251 -42.5t200 -108.5zM581 790q-82 7 -153 31
q-81 -33 -125.5 -90t-44.5 -134q0 -200 336 -233l161 -16q99 -12 157 -33q173 70 173 227q0 101 -95.5 160.5t-246.5 72.5z" />
    <glyph glyph-name="copyright" unicode="&#xa9;" horiz-adv-x="1892" 
d="M947 1490q160 0 306 -62.5t252 -168t168.5 -251.5t62.5 -305t-62.5 -305t-168.5 -251.5t-252 -168t-306 -62.5q-214 0 -396 105.5t-288 287t-106 394.5q0 160 62.5 305.5t168.5 251t252 168t307 62.5zM947 1428q-198 0 -365 -97t-264 -264t-97 -364t97 -364t264 -264
t365 -97q147 0 281.5 57.5t231.5 154.5t154.5 231t57.5 282t-57.5 282t-154.5 231t-231.5 154.5t-281.5 57.5zM1251 918q-45 69 -118.5 107.5t-163.5 38.5q-150 0 -251.5 -101t-101.5 -260q0 -161 102 -260.5t251 -99.5q90 0 164 38t119 107l49 -39q-52 -79 -139.5 -123.5
t-192.5 -44.5q-179 0 -299 118.5t-120 303.5t120 303.5t299 118.5q105 0 193.5 -45.5t140.5 -125.5z" />
    <glyph glyph-name="guillemotleft" unicode="&#xab;" horiz-adv-x="968" 
d="M783 167h-76l-195 357l195 357h76l-195 -357zM425 167h-76l-195 357l195 357h76l-195 -357z" />
    <glyph glyph-name="uni00AD" unicode="&#xad;" horiz-adv-x="830" 
d="M677 492h-524v64h524v-64z" />
    <glyph glyph-name="registered" unicode="&#xae;" horiz-adv-x="817" 
d="M411 1426q146 0 250 -104t104 -250q0 -145 -104 -248t-250 -103q-150 0 -254.5 103t-104.5 248q0 147 104.5 250.5t254.5 103.5zM411 765q127 0 216 90t89 217q0 130 -88.5 220t-216.5 90q-129 0 -220 -90.5t-91 -219.5q0 -127 91 -217t220 -90zM432 1253q61 0 96 -27
t35 -77q0 -45 -33 -73t-90 -30l124 -147h-49l-121 147h-66v-147h-41v354h145zM328 1218v-139h104q42 0 66 18.5t24 51.5t-24 51t-66 18h-104z" />
    <glyph glyph-name="degree" unicode="&#xb0;" horiz-adv-x="734" 
d="M368 784q-130 0 -223 92t-93 222q0 129 93 221t223 92t222 -91.5t92 -221.5t-92 -222t-222 -92zM368 842q105 0 179.5 74.5t74.5 181.5q0 106 -74.5 180.5t-179.5 74.5q-106 0 -180.5 -74.5t-74.5 -180.5q0 -107 74.5 -181.5t180.5 -74.5z" />
    <glyph glyph-name="periodcentered" unicode="&#xb7;" horiz-adv-x="793" 
d="M397 584q24 0 42 -18t18 -42t-18 -42t-42 -18t-42 18t-18 42t18 42t42 18z" />
    <glyph glyph-name="guillemotright" unicode="&#xbb;" horiz-adv-x="968" 
d="M185 881h76l195 -357l-195 -357h-76l195 357zM543 881h76l195 -357l-195 -357h-76l195 357z" />
    <glyph glyph-name="questiondown" unicode="&#xbf;" horiz-adv-x="829" 
d="M596 510v-303h-31q-186 0 -295.5 -84.5t-109.5 -226.5q0 -137 111 -220t285 -83q62 0 108 6l6 -71q-56 -8 -117 -8q-208 0 -339 102.5t-131 271.5q0 164 118.5 265t325.5 113l5 238h64zM564 824q-24 0 -42 18t-18 42t18 42t42 18t42 -18t18 -42t-18 -42t-42 -18z" />
    <glyph glyph-name="Agrave" unicode="&#xc0;" horiz-adv-x="1386" 
d="M1342 0h-80l-186 433h-768l-186 -433h-78l604 1400h90zM338 504h707l-353 820zM486 1785h88l234 -300h-71z" />
    <glyph glyph-name="Aacute" unicode="&#xc1;" horiz-adv-x="1386" 
d="M1342 0h-80l-186 433h-768l-186 -433h-78l604 1400h90zM338 504h707l-353 820zM574 1485l233 300h89l-251 -300h-71z" />
    <glyph glyph-name="Acircumflex" unicode="&#xc2;" horiz-adv-x="1386" 
d="M1342 0h-80l-186 433h-768l-186 -433h-78l604 1400h90zM338 504h707l-353 820zM925 1499l-232 224l-232 -224h-77l266 273h86l266 -273h-77z" />
    <glyph glyph-name="Atilde" unicode="&#xc3;" horiz-adv-x="1386" 
d="M1342 0h-80l-186 433h-768l-186 -433h-78l604 1400h90zM338 504h707l-353 820zM367 1611q40 56 84.5 82.5t107.5 26.5q45 0 82.5 -14.5t60 -32.5t55.5 -32.5t69 -14.5q47 0 81.5 21t67.5 67l43 -40q-40 -56 -84.5 -82.5t-107.5 -26.5q-45 0 -82.5 15t-59.5 32.5
t-55.5 32.5t-69.5 15q-47 0 -81.5 -21.5t-67.5 -67.5z" />
    <glyph glyph-name="Adieresis" unicode="&#xc4;" horiz-adv-x="1386" 
d="M1342 0h-80l-186 433h-768l-186 -433h-78l604 1400h90zM338 504h707l-353 820zM486 1684q22 0 37 -14.5t15 -36.5t-15 -37t-37 -15t-36.5 15t-14.5 37t14.5 36.5t36.5 14.5zM900 1684q22 0 37 -14.5t15 -36.5t-15 -37t-37 -15t-36.5 15t-14.5 37t14.5 36.5t36.5 14.5z
" />
    <glyph glyph-name="Aring" unicode="&#xc5;" horiz-adv-x="1386" 
d="M1342 0h-80l-186 433h-768l-186 -433h-78l604 1400h90zM338 504h707l-353 820zM693 1474q-82 0 -141 58t-59 140q0 81 59 140t141 59q81 0 140 -59t59 -140t-59 -139.5t-140 -58.5zM693 1528q60 0 101.5 41.5t41.5 102.5t-41.5 102.5t-101.5 41.5q-61 0 -102.5 -41.5
t-41.5 -102.5t41.5 -102.5t102.5 -41.5z" />
    <glyph glyph-name="AE" unicode="&#xc6;" horiz-adv-x="2240" 
d="M2065 0h-937v422h-680l-323 -422h-90l1073 1400h953v-70h-859v-590h837v-70h-837v-600h863v-70zM1128 493v818l-626 -818h626z" />
    <glyph glyph-name="Ccedilla" unicode="&#xc7;" horiz-adv-x="1526" 
d="M788 -325h-76l107 330l72 -2zM841 1411q176 0 326.5 -76.5t232.5 -208.5l-62 -42q-76 118 -208.5 187t-288.5 69q-176 0 -319.5 -79t-228 -226t-84.5 -335t84.5 -335t228 -226t319.5 -79q156 0 288 68t209 187l61 -44q-87 -131 -235 -206.5t-323 -75.5q-198 0 -360 89
t-256 252t-94 370t94 370t256 252t360 89z" />
    <glyph glyph-name="Egrave" unicode="&#xc8;" horiz-adv-x="1330" 
d="M1155 0h-937v1400h933v-70h-859v-590h837v-70h-837v-600h863v-70zM470 1785h88l234 -300h-71z" />
    <glyph glyph-name="Eacute" unicode="&#xc9;" horiz-adv-x="1330" 
d="M1155 0h-937v1400h933v-70h-859v-590h837v-70h-837v-600h863v-70zM558 1485l233 300h89l-251 -300h-71z" />
    <glyph glyph-name="Ecircumflex" unicode="&#xca;" horiz-adv-x="1330" 
d="M1155 0h-937v1400h933v-70h-859v-590h837v-70h-837v-600h863v-70zM909 1499l-232 224l-232 -224h-77l266 273h86l266 -273h-77z" />
    <glyph glyph-name="Edieresis" unicode="&#xcb;" horiz-adv-x="1330" 
d="M1155 0h-937v1400h933v-70h-859v-590h837v-70h-837v-600h863v-70zM470 1684q22 0 37 -14.5t15 -36.5t-15 -37t-37 -15t-36.5 15t-14.5 37t14.5 36.5t36.5 14.5zM884 1684q22 0 37 -14.5t15 -36.5t-15 -37t-37 -15t-36.5 15t-14.5 37t14.5 36.5t36.5 14.5z" />
    <glyph glyph-name="Igrave" unicode="&#xcc;" horiz-adv-x="511" 
d="M292 0h-74v1400h74v-1400zM48 1785h88l234 -300h-71z" />
    <glyph glyph-name="Iacute" unicode="&#xcd;" horiz-adv-x="511" 
d="M292 0h-74v1400h74v-1400zM136 1485l233 300h89l-251 -300h-71z" />
    <glyph glyph-name="Icircumflex" unicode="&#xce;" horiz-adv-x="511" 
d="M292 0h-74v1400h74v-1400zM487 1499l-232 224l-232 -224h-77l266 273h86l266 -273h-77z" />
    <glyph glyph-name="Idieresis" unicode="&#xcf;" horiz-adv-x="511" 
d="M292 0h-74v1400h74v-1400zM48 1684q22 0 37 -14.5t15 -36.5t-15 -37t-37 -15t-36.5 15t-14.5 37t14.5 36.5t36.5 14.5zM462 1684q22 0 37 -14.5t15 -36.5t-15 -37t-37 -15t-36.5 15t-14.5 37t14.5 36.5t36.5 14.5z" />
    <glyph glyph-name="Eth" unicode="&#xd0;" horiz-adv-x="1810" 
d="M908 1400q360 0 566 -187t206 -513t-206 -513t-566 -187h-489v670h-288v70h288v660h489zM935 670h-442v-599h415q331 0 513 167.5t182 461.5t-182 461.5t-513 167.5h-415v-589h442v-70z" />
    <glyph glyph-name="Ntilde" unicode="&#xd1;" horiz-adv-x="1558" 
d="M1339 0h-67l-979 1271l-1 -1271h-74v1400h67l979 -1271v1271h75v-1400zM452 1611q40 56 84.5 82.5t107.5 26.5q45 0 82.5 -14.5t60 -32.5t55.5 -32.5t69 -14.5q47 0 81.5 21t67.5 67l43 -40q-40 -56 -84.5 -82.5t-107.5 -26.5q-45 0 -82.5 15t-59.5 32.5t-55.5 32.5
t-69.5 15q-47 0 -81.5 -21.5t-67.5 -67.5z" />
    <glyph glyph-name="Ograve" unicode="&#xd2;" horiz-adv-x="1681" 
d="M841 1411q198 0 360 -89t256 -252t94 -370t-94 -370t-256 -252t-360 -89t-360 89t-256 252t-94 370t94 370t256 252t360 89zM841 1340q-176 0 -319.5 -79t-228 -226t-84.5 -335t84.5 -335t228 -226t319.5 -79q131 0 247 46.5t201 129t134.5 203t49.5 261.5t-49.5 261.5
t-134.5 203t-201 129t-247 46.5zM634 1785h88l234 -300h-71z" />
    <glyph glyph-name="Oacute" unicode="&#xd3;" horiz-adv-x="1681" 
d="M841 1411q198 0 360 -89t256 -252t94 -370t-94 -370t-256 -252t-360 -89t-360 89t-256 252t-94 370t94 370t256 252t360 89zM841 1340q-176 0 -319.5 -79t-228 -226t-84.5 -335t84.5 -335t228 -226t319.5 -79q131 0 247 46.5t201 129t134.5 203t49.5 261.5t-49.5 261.5
t-134.5 203t-201 129t-247 46.5zM722 1485l233 300h89l-251 -300h-71z" />
    <glyph glyph-name="Ocircumflex" unicode="&#xd4;" horiz-adv-x="1681" 
d="M841 1411q198 0 360 -89t256 -252t94 -370t-94 -370t-256 -252t-360 -89t-360 89t-256 252t-94 370t94 370t256 252t360 89zM841 1340q-176 0 -319.5 -79t-228 -226t-84.5 -335t84.5 -335t228 -226t319.5 -79q131 0 247 46.5t201 129t134.5 203t49.5 261.5t-49.5 261.5
t-134.5 203t-201 129t-247 46.5zM1073 1499l-232 224l-232 -224h-77l266 273h86l266 -273h-77z" />
    <glyph glyph-name="Otilde" unicode="&#xd5;" horiz-adv-x="1681" 
d="M841 1411q198 0 360 -89t256 -252t94 -370t-94 -370t-256 -252t-360 -89t-360 89t-256 252t-94 370t94 370t256 252t360 89zM841 1340q-176 0 -319.5 -79t-228 -226t-84.5 -335t84.5 -335t228 -226t319.5 -79q131 0 247 46.5t201 129t134.5 203t49.5 261.5t-49.5 261.5
t-134.5 203t-201 129t-247 46.5zM515 1611q40 56 84.5 82.5t107.5 26.5q45 0 82.5 -14.5t60 -32.5t55.5 -32.5t69 -14.5q47 0 81.5 21t67.5 67l43 -40q-40 -56 -84.5 -82.5t-107.5 -26.5q-45 0 -82.5 15t-59.5 32.5t-55.5 32.5t-69.5 15q-47 0 -81.5 -21.5t-67.5 -67.5z" />
    <glyph glyph-name="Odieresis" unicode="&#xd6;" horiz-adv-x="1681" 
d="M841 1411q198 0 360 -89t256 -252t94 -370t-94 -370t-256 -252t-360 -89t-360 89t-256 252t-94 370t94 370t256 252t360 89zM841 1340q-176 0 -319.5 -79t-228 -226t-84.5 -335t84.5 -335t228 -226t319.5 -79q131 0 247 46.5t201 129t134.5 203t49.5 261.5t-49.5 261.5
t-134.5 203t-201 129t-247 46.5zM634 1684q22 0 37 -14.5t15 -36.5t-15 -37t-37 -15t-36.5 15t-14.5 37t14.5 36.5t36.5 14.5zM1048 1684q22 0 37 -14.5t15 -36.5t-15 -37t-37 -15t-36.5 15t-14.5 37t14.5 36.5t36.5 14.5z" />
    <glyph glyph-name="multiply" unicode="&#xd7;" 
d="M249 220l303 303l-303 304l46 46l303 -304l308 308l46 -45l-308 -308l308 -308l-46 -46l-309 307l-303 -302z" />
    <glyph glyph-name="Oslash" unicode="&#xd8;" horiz-adv-x="1681" 
d="M841 1411q283 0 483 -178l177 177l50 -49l-177 -177q177 -198 177 -484q0 -207 -94 -370t-256 -252t-360 -89q-284 0 -484 178l-177 -177l-50 49l177 177q-176 197 -176 484q0 207 94 370t256 252t360 89zM1473 700q0 256 -153 430l-910 -910q176 -160 431 -160
q131 0 247 46.5t201 129t134.5 203t49.5 261.5zM841 1340q-176 0 -319.5 -79t-228 -226t-84.5 -335q0 -257 152 -430l910 910q-176 160 -430 160z" />
    <glyph glyph-name="Ugrave" unicode="&#xd9;" horiz-adv-x="1500" 
d="M1303 542q0 -134 -43.5 -240.5t-119 -174t-175 -103t-215.5 -35.5t-216 35.5t-176 103t-119 174t-43 240.5v858h75v-853q0 -119 37 -213t102 -153t151.5 -89.5t188.5 -30.5t188 30.5t151 89.5t102 153t37 213v853h75v-858zM543 1785h88l234 -300h-71z" />
    <glyph glyph-name="Uacute" unicode="&#xda;" horiz-adv-x="1500" 
d="M1303 542q0 -134 -43.5 -240.5t-119 -174t-175 -103t-215.5 -35.5t-216 35.5t-176 103t-119 174t-43 240.5v858h75v-853q0 -119 37 -213t102 -153t151.5 -89.5t188.5 -30.5t188 30.5t151 89.5t102 153t37 213v853h75v-858zM631 1485l233 300h89l-251 -300h-71z" />
    <glyph glyph-name="Ucircumflex" unicode="&#xdb;" horiz-adv-x="1500" 
d="M1303 542q0 -134 -43.5 -240.5t-119 -174t-175 -103t-215.5 -35.5t-216 35.5t-176 103t-119 174t-43 240.5v858h75v-853q0 -119 37 -213t102 -153t151.5 -89.5t188.5 -30.5t188 30.5t151 89.5t102 153t37 213v853h75v-858zM982 1499l-232 224l-232 -224h-77l266 273h86
l266 -273h-77z" />
    <glyph glyph-name="Udieresis" unicode="&#xdc;" horiz-adv-x="1500" 
d="M1303 542q0 -134 -43.5 -240.5t-119 -174t-175 -103t-215.5 -35.5t-216 35.5t-176 103t-119 174t-43 240.5v858h75v-853q0 -119 37 -213t102 -153t151.5 -89.5t188.5 -30.5t188 30.5t151 89.5t102 153t37 213v853h75v-858zM543 1684q22 0 37 -14.5t15 -36.5t-15 -37
t-37 -15t-36.5 15t-14.5 37t14.5 36.5t36.5 14.5zM957 1684q22 0 37 -14.5t15 -36.5t-15 -37t-37 -15t-36.5 15t-14.5 37t14.5 36.5t36.5 14.5z" />
    <glyph glyph-name="Yacute" unicode="&#xdd;" horiz-adv-x="1232" 
d="M654 619v-619h-74v619l-567 781h90l514 -710l515 710h87zM499 1485l233 300h89l-251 -300h-71z" />
    <glyph glyph-name="Thorn" unicode="&#xde;" horiz-adv-x="1334" 
d="M292 1125h435q230 0 362 -107.5t132 -302.5t-132 -302.5t-362 -107.5h-435v-305h-74v1400h74v-275zM292 1055v-680h434q197 0 307.5 87.5t110.5 252.5t-110.5 252.5t-307.5 87.5h-434z" />
    <glyph glyph-name="germandbls" unicode="&#xdf;" horiz-adv-x="1205" 
d="M180 1018q0 198 118 315.5t318 117.5q188 0 312.5 -103.5t124.5 -276.5q0 -126 -66 -214t-173 -119q125 -29 202 -125t77 -231q0 -180 -115 -286.5t-283 -106.5q-146 0 -257 60l20 61q105 -56 228 -56q146 0 240.5 87.5t94.5 240.5q0 144 -100.5 231.5t-259.5 87.5h-91
v64h70q146 0 244 81t98 225q0 146 -104 230t-264 84q-163 0 -263.5 -98.5t-100.5 -272.5v-1014h-70v1018z" />
    <glyph glyph-name="agrave" unicode="&#xe0;" horiz-adv-x="1243" 
d="M1053 0h-69v218q-60 -106 -163.5 -167.5t-234.5 -61.5q-202 0 -337.5 136t-135.5 341q0 206 135.5 342t337.5 136q131 0 235 -61.5t163 -168.5v219h69v-933zM586 878q-174 0 -288 -118t-114 -294q0 -175 114.5 -293t287.5 -118t287.5 117.5t114.5 293.5
q0 177 -114.5 294.5t-287.5 117.5zM370 1369h88l234 -300h-71z" />
    <glyph glyph-name="aacute" unicode="&#xe1;" horiz-adv-x="1243" 
d="M1053 0h-69v218q-60 -106 -163.5 -167.5t-234.5 -61.5q-202 0 -337.5 136t-135.5 341q0 206 135.5 342t337.5 136q131 0 235 -61.5t163 -168.5v219h69v-933zM586 878q-174 0 -288 -118t-114 -294q0 -175 114.5 -293t287.5 -118t287.5 117.5t114.5 293.5
q0 177 -114.5 294.5t-287.5 117.5zM497 1069l233 300h89l-251 -300h-71z" />
    <glyph glyph-name="acircumflex" unicode="&#xe2;" horiz-adv-x="1243" 
d="M1053 0h-69v218q-60 -106 -163.5 -167.5t-234.5 -61.5q-202 0 -337.5 136t-135.5 341q0 206 135.5 342t337.5 136q131 0 235 -61.5t163 -168.5v219h69v-933zM586 878q-174 0 -288 -118t-114 -294q0 -175 114.5 -293t287.5 -118t287.5 117.5t114.5 293.5
q0 177 -114.5 294.5t-287.5 117.5zM832 1083l-232 224l-232 -224h-77l266 273h86l266 -273h-77z" />
    <glyph glyph-name="atilde" unicode="&#xe3;" horiz-adv-x="1243" 
d="M1053 0h-69v218q-60 -106 -163.5 -167.5t-234.5 -61.5q-202 0 -337.5 136t-135.5 341q0 206 135.5 342t337.5 136q131 0 235 -61.5t163 -168.5v219h69v-933zM586 878q-174 0 -288 -118t-114 -294q0 -175 114.5 -293t287.5 -118t287.5 117.5t114.5 293.5
q0 177 -114.5 294.5t-287.5 117.5zM289 1195q40 56 84.5 82.5t107.5 26.5q45 0 82.5 -14.5t60 -32.5t55.5 -32.5t69 -14.5q47 0 81.5 21t67.5 67l43 -40q-40 -56 -84.5 -82.5t-107.5 -26.5q-45 0 -82.5 15t-59.5 32.5t-55.5 32.5t-69.5 15q-47 0 -81.5 -21.5t-67.5 -67.5z
" />
    <glyph glyph-name="adieresis" unicode="&#xe4;" horiz-adv-x="1243" 
d="M1053 0h-69v218q-60 -106 -163.5 -167.5t-234.5 -61.5q-202 0 -337.5 136t-135.5 341q0 206 135.5 342t337.5 136q131 0 235 -61.5t163 -168.5v219h69v-933zM586 878q-174 0 -288 -118t-114 -294q0 -175 114.5 -293t287.5 -118t287.5 117.5t114.5 293.5
q0 177 -114.5 294.5t-287.5 117.5zM393 1268q22 0 37 -14.5t15 -36.5t-15 -37t-37 -15t-36.5 15t-14.5 37t14.5 36.5t36.5 14.5zM807 1268q22 0 37 -14.5t15 -36.5t-15 -37t-37 -15t-36.5 15t-14.5 37t14.5 36.5t36.5 14.5z" />
    <glyph glyph-name="aring" unicode="&#xe5;" horiz-adv-x="1243" 
d="M1053 0h-69v218q-60 -106 -163.5 -167.5t-234.5 -61.5q-202 0 -337.5 136t-135.5 341q0 206 135.5 342t337.5 136q131 0 235 -61.5t163 -168.5v219h69v-933zM586 878q-174 0 -288 -118t-114 -294q0 -175 114.5 -293t287.5 -118t287.5 117.5t114.5 293.5
q0 177 -114.5 294.5t-287.5 117.5zM600 1058q-82 0 -141 58t-59 140q0 81 59 140t141 59q81 0 140 -59t59 -140t-59 -139.5t-140 -58.5zM600 1112q60 0 101.5 41.5t41.5 102.5t-41.5 102.5t-101.5 41.5q-61 0 -102.5 -41.5t-41.5 -102.5t41.5 -102.5t102.5 -41.5z" />
    <glyph glyph-name="ae" unicode="&#xe6;" horiz-adv-x="1843" 
d="M1294 944q185 0 309 -133t128 -338v-16q0 -10 -1 -15h-823q8 -175 117.5 -281t275.5 -106q199 0 340 150l42 -48q-152 -168 -386 -168q-131 0 -233 56.5t-163 159.5q-72 -99 -184.5 -157.5t-244.5 -58.5q-165 0 -261.5 70.5t-96.5 188.5q0 121 98.5 189.5t284.5 68.5h340
v51q0 166 -87 243t-241 77q-167 0 -302 -105l-37 52q147 120 344 120q150 0 248.5 -64t127.5 -198q50 118 160.5 190t244.5 72zM1293 878q-157 0 -264.5 -104.5t-121.5 -267.5h750q-10 161 -113 266.5t-251 105.5zM471 55q118 0 224 56.5t175 155.5q-33 81 -37 175h-326
q-163 0 -241.5 -51t-78.5 -143q0 -88 77 -140.5t207 -52.5z" />
    <glyph glyph-name="ccedilla" unicode="&#xe7;" horiz-adv-x="1021" 
d="M585 944q209 0 341 -143l-45 -47q-124 124 -298 124q-171 0 -285 -117.5t-114 -294.5t114 -294t285 -117q175 0 299 124l44 -47q-132 -143 -341 -143q-134 0 -242 62t-169 171.5t-61 243.5q0 205 134.5 341.5t337.5 136.5zM519 -325h-73l107 330l69 -2z" />
    <glyph glyph-name="egrave" unicode="&#xe8;" horiz-adv-x="1123" 
d="M574 944q185 0 309 -133t128 -338q0 -5 -0.5 -15t-0.5 -16h-824q8 -175 118.5 -281t277.5 -106q195 0 338 150l42 -48q-150 -168 -384 -168q-203 0 -334 134t-131 343q0 206 132.5 342t328.5 136zM573 878q-157 0 -265 -105t-122 -267h751q-10 161 -113 266.5t-251 105.5
zM344 1369h88l234 -300h-71z" />
    <glyph glyph-name="eacute" unicode="&#xe9;" horiz-adv-x="1123" 
d="M574 944q185 0 309 -133t128 -338q0 -5 -0.5 -15t-0.5 -16h-824q8 -175 118.5 -281t277.5 -106q195 0 338 150l42 -48q-150 -168 -384 -168q-203 0 -334 134t-131 343q0 206 132.5 342t328.5 136zM573 878q-157 0 -265 -105t-122 -267h751q-10 161 -113 266.5t-251 105.5
zM471 1069l233 300h89l-251 -300h-71z" />
    <glyph glyph-name="ecircumflex" unicode="&#xea;" horiz-adv-x="1123" 
d="M574 944q185 0 309 -133t128 -338q0 -5 -0.5 -15t-0.5 -16h-824q8 -175 118.5 -281t277.5 -106q195 0 338 150l42 -48q-150 -168 -384 -168q-203 0 -334 134t-131 343q0 206 132.5 342t328.5 136zM573 878q-157 0 -265 -105t-122 -267h751q-10 161 -113 266.5t-251 105.5
zM806 1083l-232 224l-232 -224h-77l266 273h86l266 -273h-77z" />
    <glyph glyph-name="edieresis" unicode="&#xeb;" horiz-adv-x="1123" 
d="M574 944q185 0 309 -133t128 -338q0 -5 -0.5 -15t-0.5 -16h-824q8 -175 118.5 -281t277.5 -106q195 0 338 150l42 -48q-150 -168 -384 -168q-203 0 -334 134t-131 343q0 206 132.5 342t328.5 136zM573 878q-157 0 -265 -105t-122 -267h751q-10 161 -113 266.5t-251 105.5
zM367 1268q22 0 37 -14.5t15 -36.5t-15 -37t-37 -15t-36.5 15t-14.5 37t14.5 36.5t36.5 14.5zM781 1268q22 0 37 -14.5t15 -36.5t-15 -37t-37 -15t-36.5 15t-14.5 37t14.5 36.5t36.5 14.5z" />
    <glyph glyph-name="igrave" unicode="&#xec;" horiz-adv-x="450" 
d="M260 0h-70v933h70v-933zM-5 1369h88l234 -300h-71z" />
    <glyph glyph-name="iacute" unicode="&#xed;" horiz-adv-x="450" 
d="M260 0h-70v933h70v-933zM122 1069l233 300h89l-251 -300h-71z" />
    <glyph glyph-name="icircumflex" unicode="&#xee;" horiz-adv-x="450" 
d="M260 0h-70v933h70v-933zM457 1083l-232 224l-232 -224h-77l266 273h86l266 -273h-77z" />
    <glyph glyph-name="idieresis" unicode="&#xef;" horiz-adv-x="450" 
d="M260 0h-70v933h70v-933zM18 1268q22 0 37 -14.5t15 -36.5t-15 -37t-37 -15t-36.5 15t-14.5 37t14.5 36.5t36.5 14.5zM432 1268q22 0 37 -14.5t15 -36.5t-15 -37t-37 -15t-36.5 15t-14.5 37t14.5 36.5t36.5 14.5z" />
    <glyph glyph-name="eth" unicode="&#xf0;" horiz-adv-x="1178" 
d="M925 1367l-252 -143q173 -157 283 -353t110 -405q0 -203 -137.5 -340t-340.5 -137q-202 0 -338.5 137t-136.5 340q0 204 136 341t339 137q193 0 325 -126q-101 201 -300 372l-269 -153l-31 51l250 142q-120 93 -257 160l31 57q151 -71 287 -181l270 152zM588 878
q-172 0 -288 -117.5t-116 -294.5t116 -294t288 -117q174 0 290.5 117t116.5 294t-116.5 294.5t-290.5 117.5z" />
    <glyph glyph-name="ntilde" unicode="&#xf1;" horiz-adv-x="1192" 
d="M608 944q188 0 297 -107t109 -290v-547h-69v547q0 151 -89.5 241t-253.5 90q-150 0 -246 -97t-96 -241v-540h-70v933h69v-179q52 87 142 138.5t207 51.5zM299 1195q40 56 84.5 82.5t107.5 26.5q45 0 82.5 -14.5t60 -32.5t55.5 -32.5t69 -14.5q47 0 81.5 21t67.5 67
l43 -40q-40 -56 -84.5 -82.5t-107.5 -26.5q-45 0 -82.5 15t-59.5 32.5t-55.5 32.5t-69.5 15q-47 0 -81.5 -21.5t-67.5 -67.5z" />
    <glyph glyph-name="ograve" unicode="&#xf2;" horiz-adv-x="1178" 
d="M588 944q204 0 341 -137t137 -341t-137 -340.5t-341 -136.5q-203 0 -339 136.5t-136 340.5t136 341t339 137zM588 878q-172 0 -288 -117.5t-116 -294.5q0 -176 116 -293.5t288 -117.5q174 0 290.5 117t116.5 294t-116.5 294.5t-290.5 117.5zM359 1369h88l234 -300h-71z
" />
    <glyph glyph-name="oacute" unicode="&#xf3;" horiz-adv-x="1178" 
d="M588 944q204 0 341 -137t137 -341t-137 -340.5t-341 -136.5q-203 0 -339 136.5t-136 340.5t136 341t339 137zM588 878q-172 0 -288 -117.5t-116 -294.5q0 -176 116 -293.5t288 -117.5q174 0 290.5 117t116.5 294t-116.5 294.5t-290.5 117.5zM486 1069l233 300h89
l-251 -300h-71z" />
    <glyph glyph-name="ocircumflex" unicode="&#xf4;" horiz-adv-x="1178" 
d="M588 944q204 0 341 -137t137 -341t-137 -340.5t-341 -136.5q-203 0 -339 136.5t-136 340.5t136 341t339 137zM588 878q-172 0 -288 -117.5t-116 -294.5q0 -176 116 -293.5t288 -117.5q174 0 290.5 117t116.5 294t-116.5 294.5t-290.5 117.5zM821 1083l-232 224l-232 -224
h-77l266 273h86l266 -273h-77z" />
    <glyph glyph-name="otilde" unicode="&#xf5;" horiz-adv-x="1178" 
d="M588 944q204 0 341 -137t137 -341t-137 -340.5t-341 -136.5q-203 0 -339 136.5t-136 340.5t136 341t339 137zM588 878q-172 0 -288 -117.5t-116 -294.5q0 -176 116 -293.5t288 -117.5q174 0 290.5 117t116.5 294t-116.5 294.5t-290.5 117.5zM278 1195q40 56 84.5 82.5
t107.5 26.5q45 0 82.5 -14.5t60 -32.5t55.5 -32.5t69 -14.5q47 0 81.5 21t67.5 67l43 -40q-40 -56 -84.5 -82.5t-107.5 -26.5q-45 0 -82.5 15t-59.5 32.5t-55.5 32.5t-69.5 15q-47 0 -81.5 -21.5t-67.5 -67.5z" />
    <glyph glyph-name="odieresis" unicode="&#xf6;" horiz-adv-x="1178" 
d="M588 944q204 0 341 -137t137 -341t-137 -340.5t-341 -136.5q-203 0 -339 136.5t-136 340.5t136 341t339 137zM588 878q-172 0 -288 -117.5t-116 -294.5q0 -176 116 -293.5t288 -117.5q174 0 290.5 117t116.5 294t-116.5 294.5t-290.5 117.5zM382 1268q22 0 37 -14.5
t15 -36.5t-15 -37t-37 -15t-36.5 15t-14.5 37t14.5 36.5t36.5 14.5zM796 1268q22 0 37 -14.5t15 -36.5t-15 -37t-37 -15t-36.5 15t-14.5 37t14.5 36.5t36.5 14.5z" />
    <glyph glyph-name="oslash" unicode="&#xf8;" horiz-adv-x="1178" 
d="M588 944q184 0 319 -117l123 123l44 -42l-124 -124q116 -133 116 -318q0 -204 -137 -340.5t-341 -136.5q-184 0 -317 116l-123 -123l-43 43l123 123q-115 134 -115 318q0 204 136 341t339 137zM588 878q-172 0 -288 -117.5t-116 -294.5q0 -157 93 -269l582 582
q-113 99 -271 99zM995 466q0 156 -94 269l-582 -582q112 -98 269 -98q174 0 290.5 117t116.5 294z" />
    <glyph glyph-name="ugrave" unicode="&#xf9;" horiz-adv-x="1180" 
d="M1002 381q0 -182 -115.5 -287t-296.5 -105q-182 0 -296.5 104.5t-114.5 287.5v552h69v-546q0 -155 94 -243.5t248 -88.5t248 88.5t94 243.5v546h70v-552zM360 1369h88l234 -300h-71z" />
    <glyph glyph-name="uacute" unicode="&#xfa;" horiz-adv-x="1180" 
d="M1002 381q0 -182 -115.5 -287t-296.5 -105q-182 0 -296.5 104.5t-114.5 287.5v552h69v-546q0 -155 94 -243.5t248 -88.5t248 88.5t94 243.5v546h70v-552zM487 1069l233 300h89l-251 -300h-71z" />
    <glyph glyph-name="ucircumflex" unicode="&#xfb;" horiz-adv-x="1180" 
d="M1002 381q0 -182 -115.5 -287t-296.5 -105q-182 0 -296.5 104.5t-114.5 287.5v552h69v-546q0 -155 94 -243.5t248 -88.5t248 88.5t94 243.5v546h70v-552zM822 1083l-232 224l-232 -224h-77l266 273h86l266 -273h-77z" />
    <glyph glyph-name="udieresis" unicode="&#xfc;" horiz-adv-x="1180" 
d="M1002 381q0 -182 -115.5 -287t-296.5 -105q-182 0 -296.5 104.5t-114.5 287.5v552h69v-546q0 -155 94 -243.5t248 -88.5t248 88.5t94 243.5v546h70v-552zM383 1268q22 0 37 -14.5t15 -36.5t-15 -37t-37 -15t-36.5 15t-14.5 37t14.5 36.5t36.5 14.5zM797 1268
q22 0 37 -14.5t15 -36.5t-15 -37t-37 -15t-36.5 15t-14.5 37t14.5 36.5t36.5 14.5z" />
    <glyph glyph-name="yacute" unicode="&#xfd;" horiz-adv-x="996" 
d="M187 -402h-78l369 618l-451 717h79l411 -648l383 648h77zM400 1069l233 300h89l-251 -300h-71z" />
    <glyph glyph-name="thorn" unicode="&#xfe;" horiz-adv-x="1243" 
d="M657 944q202 0 338 -136.5t136 -341.5t-136 -341t-338 -136q-131 0 -234.5 61.5t-162.5 166.5v-617h-70v1840h70v-725q60 106 163 167.5t234 61.5zM657 878q-172 0 -287 -118t-115 -294t115 -293.5t287 -117.5q173 0 287.5 118t114.5 293t-114.5 293.5t-287.5 118.5z" />
    <glyph glyph-name="ydieresis" unicode="&#xff;" horiz-adv-x="996" 
d="M187 -402h-78l369 618l-451 717h79l411 -648l383 648h77zM296 1268q22 0 37 -14.5t15 -36.5t-15 -37t-37 -15t-36.5 15t-14.5 37t14.5 36.5t36.5 14.5zM710 1268q22 0 37 -14.5t15 -36.5t-15 -37t-37 -15t-36.5 15t-14.5 37t14.5 36.5t36.5 14.5z" />
    <glyph glyph-name="Amacron" unicode="&#x100;" horiz-adv-x="1386" 
d="M1342 0h-80l-186 433h-768l-186 -433h-78l604 1400h90zM338 504h707l-353 820zM409 1661h569v-58h-569v58z" />
    <glyph glyph-name="amacron" unicode="&#x101;" horiz-adv-x="1243" 
d="M1053 0h-69v218q-60 -106 -163.5 -167.5t-234.5 -61.5q-202 0 -337.5 136t-135.5 341q0 206 135.5 342t337.5 136q131 0 235 -61.5t163 -168.5v219h69v-933zM586 878q-174 0 -288 -118t-114 -294q0 -175 114.5 -293t287.5 -118t287.5 117.5t114.5 293.5
q0 177 -114.5 294.5t-287.5 117.5zM316 1245h569v-58h-569v58z" />
    <glyph glyph-name="Abreve" unicode="&#x102;" horiz-adv-x="1386" 
d="M1342 0h-80l-186 433h-768l-186 -433h-78l604 1400h90zM338 504h707l-353 820zM445 1776q27 -105 90.5 -159.5t157.5 -54.5t157.5 54.5t90.5 159.5l57 -17q-32 -125 -111 -191t-194 -66t-194 66t-111 191z" />
    <glyph glyph-name="abreve" unicode="&#x103;" horiz-adv-x="1243" 
d="M1053 0h-69v218q-60 -106 -163.5 -167.5t-234.5 -61.5q-202 0 -337.5 136t-135.5 341q0 206 135.5 342t337.5 136q131 0 235 -61.5t163 -168.5v219h69v-933zM586 878q-174 0 -288 -118t-114 -294q0 -175 114.5 -293t287.5 -118t287.5 117.5t114.5 293.5
q0 177 -114.5 294.5t-287.5 117.5zM352 1360q27 -105 90.5 -159.5t157.5 -54.5t157.5 54.5t90.5 159.5l57 -17q-32 -125 -111 -191t-194 -66t-194 66t-111 191z" />
    <glyph glyph-name="Aogonek" unicode="&#x104;" horiz-adv-x="1386" 
d="M1342 0h-80l-186 433h-768l-186 -433h-78l604 1400h90zM338 504h707l-353 820zM1354 -326q-71 -83 -174 -83q-81 0 -132 44.5t-51 117.5q0 91 77 162t224 135l25 -50q-132 -59 -196 -116t-64 -124q0 -50 34 -79.5t89 -29.5q74 0 130 67z" />
    <glyph glyph-name="aogonek" unicode="&#x105;" horiz-adv-x="1243" 
d="M1053 0h-69v218q-60 -106 -163.5 -167.5t-234.5 -61.5q-202 0 -337.5 136t-135.5 341q0 206 135.5 342t337.5 136q131 0 235 -61.5t163 -168.5v219h69v-933zM586 878q-174 0 -288 -118t-114 -294q0 -175 114.5 -293t287.5 -118t287.5 117.5t114.5 293.5
q0 177 -114.5 294.5t-287.5 117.5zM1084 -326q-71 -83 -174 -83q-81 0 -132 44.5t-51 117.5q0 91 77 162t224 135l25 -50q-132 -59 -196 -116t-64 -124q0 -50 34 -79.5t89 -29.5q74 0 130 67z" />
    <glyph glyph-name="Cacute" unicode="&#x106;" horiz-adv-x="1526" 
d="M841 1411q176 0 326.5 -76.5t232.5 -208.5l-62 -42q-76 118 -208.5 187t-288.5 69q-176 0 -319.5 -79t-228 -226t-84.5 -335t84.5 -335t228 -226t319.5 -79q156 0 288 68t209 187l61 -44q-87 -131 -235 -206.5t-323 -75.5q-198 0 -360 89t-256 252t-94 370t94 370
t256 252t360 89zM717 1485l233 300h89l-251 -300h-71z" />
    <glyph glyph-name="cacute" unicode="&#x107;" horiz-adv-x="1021" 
d="M585 944q209 0 341 -143l-45 -47q-124 124 -298 124q-171 0 -285 -117.5t-114 -294.5t114 -294t285 -117q175 0 299 124l44 -47q-132 -143 -341 -143q-134 0 -242 62t-169 171.5t-61 243.5q0 205 134.5 341.5t337.5 136.5zM478 1069l233 300h89l-251 -300h-71z" />
    <glyph glyph-name="Ccircumflex" unicode="&#x108;" horiz-adv-x="1526" 
d="M841 1411q176 0 326.5 -76.5t232.5 -208.5l-62 -42q-76 118 -208.5 187t-288.5 69q-176 0 -319.5 -79t-228 -226t-84.5 -335t84.5 -335t228 -226t319.5 -79q156 0 288 68t209 187l61 -44q-87 -131 -235 -206.5t-323 -75.5q-198 0 -360 89t-256 252t-94 370t94 370
t256 252t360 89zM1068 1499l-232 224l-232 -224h-77l266 273h86l266 -273h-77z" />
    <glyph glyph-name="ccircumflex" unicode="&#x109;" horiz-adv-x="1021" 
d="M585 944q209 0 341 -143l-45 -47q-124 124 -298 124q-171 0 -285 -117.5t-114 -294.5t114 -294t285 -117q175 0 299 124l44 -47q-132 -143 -341 -143q-134 0 -242 62t-169 171.5t-61 243.5q0 205 134.5 341.5t337.5 136.5zM813 1083l-232 224l-232 -224h-77l266 273h86
l266 -273h-77z" />
    <glyph glyph-name="Cdotaccent" unicode="&#x10a;" horiz-adv-x="1526" 
d="M841 1411q176 0 326.5 -76.5t232.5 -208.5l-62 -42q-76 118 -208.5 187t-288.5 69q-176 0 -319.5 -79t-228 -226t-84.5 -335t84.5 -335t228 -226t319.5 -79q156 0 288 68t209 187l61 -44q-87 -131 -235 -206.5t-323 -75.5q-198 0 -360 89t-256 252t-94 370t94 370
t256 252t360 89zM830 1687q22 0 37.5 -15.5t15.5 -37.5t-15.5 -37t-37.5 -15t-37 15t-15 37t15 37.5t37 15.5z" />
    <glyph glyph-name="cdotaccent" unicode="&#x10b;" horiz-adv-x="1021" 
d="M585 944q209 0 341 -143l-45 -47q-124 124 -298 124q-171 0 -285 -117.5t-114 -294.5t114 -294t285 -117q175 0 299 124l44 -47q-132 -143 -341 -143q-134 0 -242 62t-169 171.5t-61 243.5q0 205 134.5 341.5t337.5 136.5zM581 1327q22 0 37 -15t15 -37t-15 -36.5
t-37 -14.5t-36.5 14.5t-14.5 36.5t14.5 37t36.5 15z" />
    <glyph glyph-name="Ccaron" unicode="&#x10c;" horiz-adv-x="1526" 
d="M841 1411q176 0 326.5 -76.5t232.5 -208.5l-62 -42q-76 118 -208.5 187t-288.5 69q-176 0 -319.5 -79t-228 -226t-84.5 -335t84.5 -335t228 -226t319.5 -79q156 0 288 68t209 187l61 -44q-87 -131 -235 -206.5t-323 -75.5q-198 0 -360 89t-256 252t-94 370t94 370
t256 252t360 89zM604 1768l232 -223l232 223h77l-266 -273h-86l-266 273h77z" />
    <glyph glyph-name="ccaron" unicode="&#x10d;" horiz-adv-x="1021" 
d="M585 944q209 0 341 -143l-45 -47q-124 124 -298 124q-171 0 -285 -117.5t-114 -294.5t114 -294t285 -117q175 0 299 124l44 -47q-132 -143 -341 -143q-134 0 -242 62t-169 171.5t-61 243.5q0 205 134.5 341.5t337.5 136.5zM349 1352l232 -223l232 223h77l-266 -273h-86
l-266 273h77z" />
    <glyph glyph-name="Dcaron" unicode="&#x10e;" horiz-adv-x="1609" 
d="M707 1400q360 0 566 -187t206 -513t-206 -513t-566 -187h-489v1400h489zM292 1329v-1258h415q331 0 513 167.5t182 461.5t-182 461.5t-513 167.5h-415zM502 1768l232 -223l232 223h77l-266 -273h-86l-266 273h77z" />
    <glyph glyph-name="dcaron" unicode="&#x10f;" horiz-adv-x="1265" 
d="M586 944q131 0 235 -61.5t163 -168.5v726h69v-1440h-69v218q-60 -106 -163.5 -167.5t-234.5 -61.5q-202 0 -337.5 136t-135.5 341q0 206 135.5 342t337.5 136zM586 878q-174 0 -288 -118t-114 -294q0 -175 114.5 -293t287.5 -118t287.5 117.5t114.5 293.5
q0 177 -114.5 294.5t-287.5 117.5zM1184 1051l16 389h71l-27 -389h-60z" />
    <glyph glyph-name="Dcroat" unicode="&#x110;" horiz-adv-x="1810" 
d="M908 1400q360 0 566 -187t206 -513t-206 -513t-566 -187h-489v670h-288v70h288v660h489zM935 670h-442v-599h415q331 0 513 167.5t182 461.5t-182 461.5t-513 167.5h-415v-589h442v-70z" />
    <glyph glyph-name="dcroat" unicode="&#x111;" horiz-adv-x="1243" 
d="M1233 1138h-180v-1138h-69v218q-60 -106 -163.5 -167.5t-234.5 -61.5q-202 0 -337.5 136t-135.5 341q0 206 135.5 342t337.5 136q131 0 235 -61.5t163 -168.5v424h-453v64h453v238h69v-238h180v-64zM586 878q-174 0 -288 -118t-114 -294q0 -175 114.5 -293t287.5 -118
t287.5 117.5t114.5 293.5q0 177 -114.5 294.5t-287.5 117.5z" />
    <glyph glyph-name="Emacron" unicode="&#x112;" horiz-adv-x="1330" 
d="M1155 0h-937v1400h933v-70h-859v-590h837v-70h-837v-600h863v-70zM393 1661h569v-58h-569v58z" />
    <glyph glyph-name="emacron" unicode="&#x113;" horiz-adv-x="1123" 
d="M574 944q185 0 309 -133t128 -338q0 -5 -0.5 -15t-0.5 -16h-824q8 -175 118.5 -281t277.5 -106q195 0 338 150l42 -48q-150 -168 -384 -168q-203 0 -334 134t-131 343q0 206 132.5 342t328.5 136zM573 878q-157 0 -265 -105t-122 -267h751q-10 161 -113 266.5t-251 105.5
zM290 1245h569v-58h-569v58z" />
    <glyph glyph-name="Ebreve" unicode="&#x114;" horiz-adv-x="1330" 
d="M1155 0h-937v1400h933v-70h-859v-590h837v-70h-837v-600h863v-70zM429 1776q27 -105 90.5 -159.5t157.5 -54.5t157.5 54.5t90.5 159.5l57 -17q-32 -125 -111 -191t-194 -66t-194 66t-111 191z" />
    <glyph glyph-name="ebreve" unicode="&#x115;" horiz-adv-x="1123" 
d="M574 944q185 0 309 -133t128 -338q0 -5 -0.5 -15t-0.5 -16h-824q8 -175 118.5 -281t277.5 -106q195 0 338 150l42 -48q-150 -168 -384 -168q-203 0 -334 134t-131 343q0 206 132.5 342t328.5 136zM573 878q-157 0 -265 -105t-122 -267h751q-10 161 -113 266.5t-251 105.5
zM326 1360q27 -105 90.5 -159.5t157.5 -54.5t157.5 54.5t90.5 159.5l57 -17q-32 -125 -111 -191t-194 -66t-194 66t-111 191z" />
    <glyph glyph-name="Edotaccent" unicode="&#x116;" horiz-adv-x="1330" 
d="M1155 0h-937v1400h933v-70h-859v-590h837v-70h-837v-600h863v-70zM671 1687q22 0 37.5 -15.5t15.5 -37.5t-15.5 -37t-37.5 -15t-37 15t-15 37t15 37.5t37 15.5z" />
    <glyph glyph-name="edotaccent" unicode="&#x117;" horiz-adv-x="1123" 
d="M574 944q185 0 309 -133t128 -338q0 -5 -0.5 -15t-0.5 -16h-824q8 -175 118.5 -281t277.5 -106q195 0 338 150l42 -48q-150 -168 -384 -168q-203 0 -334 134t-131 343q0 206 132.5 342t328.5 136zM573 878q-157 0 -265 -105t-122 -267h751q-10 161 -113 266.5t-251 105.5
zM574 1327q22 0 37 -15t15 -37t-15 -36.5t-37 -14.5t-36.5 14.5t-14.5 36.5t14.5 37t36.5 15z" />
    <glyph glyph-name="Eogonek" unicode="&#x118;" horiz-adv-x="1330" 
d="M1155 0h-937v1400h933v-70h-859v-590h837v-70h-837v-600h863v-70zM987 9q-92 -51 -138 -103t-46 -118q0 -61 44 -99t114 -38q97 0 166 71l39 -45q-86 -86 -209 -86q-98 0 -160 53.5t-62 138.5q0 88 56.5 150.5t169.5 120.5z" />
    <glyph glyph-name="eogonek" unicode="&#x119;" horiz-adv-x="1123" 
d="M574 944q185 0 309 -133t128 -338q0 -5 -0.5 -15t-0.5 -16h-824q8 -175 118.5 -281t277.5 -106q195 0 338 150l42 -48q-150 -168 -384 -168q-203 0 -334 134t-131 343q0 206 132.5 342t328.5 136zM573 878q-157 0 -265 -105t-122 -267h751q-10 161 -113 266.5t-251 105.5
zM940 -323q-86 -86 -209 -86q-98 0 -160 53.5t-62 138.5q0 52 21 95.5t64 80.5t86 64t111 62l33 -38q-64 -36 -100.5 -59.5t-74.5 -56t-55 -67.5t-17 -76q0 -61 44 -99t114 -38q97 0 166 71z" />
    <glyph glyph-name="Ecaron" unicode="&#x11a;" horiz-adv-x="1330" 
d="M1155 0h-937v1400h933v-70h-859v-590h837v-70h-837v-600h863v-70zM445 1768l232 -223l232 223h77l-266 -273h-86l-266 273h77z" />
    <glyph glyph-name="ecaron" unicode="&#x11b;" horiz-adv-x="1123" 
d="M574 944q185 0 309 -133t128 -338q0 -5 -0.5 -15t-0.5 -16h-824q8 -175 118.5 -281t277.5 -106q195 0 338 150l42 -48q-150 -168 -384 -168q-203 0 -334 134t-131 343q0 206 132.5 342t328.5 136zM573 878q-157 0 -265 -105t-122 -267h751q-10 161 -113 266.5t-251 105.5
zM342 1352l232 -223l232 223h77l-266 -273h-86l-266 273h77z" />
    <glyph glyph-name="Gcircumflex" unicode="&#x11c;" horiz-adv-x="1635" 
d="M841 1411q162 0 303.5 -65t238.5 -180l-55 -52q-88 106 -215 166t-272 60q-176 0 -319.5 -79t-228 -226t-84.5 -335t84.5 -335t227.5 -226t317 -79q261 0 420 162.5t167 433.5h-522v70h602v-23q0 -207 -81.5 -369t-233.5 -253.5t-352 -91.5q-142 0 -270.5 50.5
t-225.5 141t-154 225.5t-57 294q0 206 94.5 369.5t256.5 252.5t359 89zM1056 1499l-232 224l-232 -224h-77l266 273h86l266 -273h-77z" />
    <glyph glyph-name="gcircumflex" unicode="&#x11d;" horiz-adv-x="1238" 
d="M585 944q128 0 231.5 -60t162.5 -162v211h69v-870q0 -93 -25.5 -171t-70.5 -133t-106.5 -93.5t-132 -56.5t-148.5 -18q-119 0 -222.5 39t-172.5 108l35 53q65 -64 158 -100t202 -36q83 0 156.5 25t131.5 73t92 127t34 180v150q-59 -101 -162.5 -161t-231.5 -60
q-202 0 -337 135.5t-135 341.5t135 342t337 136zM585 878q-174 0 -287.5 -118t-113.5 -294q0 -175 114 -293t287 -118t288 117.5t115 293.5t-115 294t-288 118zM828 1083l-232 224l-232 -224h-77l266 273h86l266 -273h-77z" />
    <glyph glyph-name="Gbreve" unicode="&#x11e;" horiz-adv-x="1635" 
d="M841 1411q162 0 303.5 -65t238.5 -180l-55 -52q-88 106 -215 166t-272 60q-176 0 -319.5 -79t-228 -226t-84.5 -335t84.5 -335t227.5 -226t317 -79q261 0 420 162.5t167 433.5h-522v70h602v-23q0 -207 -81.5 -369t-233.5 -253.5t-352 -91.5q-142 0 -270.5 50.5
t-225.5 141t-154 225.5t-57 294q0 206 94.5 369.5t256.5 252.5t359 89zM576 1776q27 -105 90.5 -159.5t157.5 -54.5t157.5 54.5t90.5 159.5l57 -17q-32 -125 -111 -191t-194 -66t-194 66t-111 191z" />
    <glyph glyph-name="gbreve" unicode="&#x11f;" horiz-adv-x="1238" 
d="M585 944q128 0 231.5 -60t162.5 -162v211h69v-870q0 -93 -25.5 -171t-70.5 -133t-106.5 -93.5t-132 -56.5t-148.5 -18q-119 0 -222.5 39t-172.5 108l35 53q65 -64 158 -100t202 -36q83 0 156.5 25t131.5 73t92 127t34 180v150q-59 -101 -162.5 -161t-231.5 -60
q-202 0 -337 135.5t-135 341.5t135 342t337 136zM585 878q-174 0 -287.5 -118t-113.5 -294q0 -175 114 -293t287 -118t288 117.5t115 293.5t-115 294t-288 118zM348 1360q27 -105 90.5 -159.5t157.5 -54.5t157.5 54.5t90.5 159.5l57 -17q-32 -125 -111 -191t-194 -66
t-194 66t-111 191z" />
    <glyph glyph-name="Gdotaccent" unicode="&#x120;" horiz-adv-x="1635" 
d="M841 1411q162 0 303.5 -65t238.5 -180l-55 -52q-88 106 -215 166t-272 60q-176 0 -319.5 -79t-228 -226t-84.5 -335t84.5 -335t227.5 -226t317 -79q261 0 420 162.5t167 433.5h-522v70h602v-23q0 -207 -81.5 -369t-233.5 -253.5t-352 -91.5q-142 0 -270.5 50.5
t-225.5 141t-154 225.5t-57 294q0 206 94.5 369.5t256.5 252.5t359 89zM818 1687q22 0 37.5 -15.5t15.5 -37.5t-15.5 -37t-37.5 -15t-37 15t-15 37t15 37.5t37 15.5z" />
    <glyph glyph-name="gdotaccent" unicode="&#x121;" horiz-adv-x="1238" 
d="M585 944q128 0 231.5 -60t162.5 -162v211h69v-870q0 -93 -25.5 -171t-70.5 -133t-106.5 -93.5t-132 -56.5t-148.5 -18q-119 0 -222.5 39t-172.5 108l35 53q65 -64 158 -100t202 -36q83 0 156.5 25t131.5 73t92 127t34 180v150q-59 -101 -162.5 -161t-231.5 -60
q-202 0 -337 135.5t-135 341.5t135 342t337 136zM585 878q-174 0 -287.5 -118t-113.5 -294q0 -175 114 -293t287 -118t288 117.5t115 293.5t-115 294t-288 118zM596 1327q22 0 37 -15t15 -37t-15 -36.5t-37 -14.5t-36.5 14.5t-14.5 36.5t14.5 37t36.5 15z" />
    <glyph glyph-name="Gcommaaccent" unicode="&#x122;" horiz-adv-x="1635" 
d="M841 1411q162 0 303.5 -65t238.5 -180l-55 -52q-88 106 -215 166t-272 60q-176 0 -319.5 -79t-228 -226t-84.5 -335t84.5 -335t227.5 -226t317 -79q261 0 420 162.5t167 433.5h-522v70h602v-23q0 -207 -81.5 -369t-233.5 -253.5t-352 -91.5q-142 0 -270.5 50.5
t-225.5 141t-154 225.5t-57 294q0 206 94.5 369.5t256.5 252.5t359 89zM880 -89l-61 -327h-62l48 327h75z" />
    <glyph glyph-name="gcommaaccent" unicode="&#x123;" horiz-adv-x="1238" 
d="M585 944q128 0 231.5 -60t162.5 -162v211h69v-870q0 -93 -25.5 -171t-70.5 -133t-106.5 -93.5t-132 -56.5t-148.5 -18q-119 0 -222.5 39t-172.5 108l35 53q65 -64 158 -100t202 -36q83 0 156.5 25t131.5 73t92 127t34 180v150q-59 -101 -162.5 -161t-231.5 -60
q-202 0 -337 135.5t-135 341.5t135 342t337 136zM585 878q-174 0 -287.5 -118t-113.5 -294q0 -175 114 -293t287 -118t288 117.5t115 293.5t-115 294t-288 118zM549 1069l61 328h62l-47 -328h-76z" />
    <glyph glyph-name="Hcircumflex" unicode="&#x124;" horiz-adv-x="1554" 
d="M292 740h968v660h75v-1400h-75v670h-968v-670h-74v1400h74v-660zM1008 1499l-232 224l-232 -224h-77l266 273h86l266 -273h-77z" />
    <glyph glyph-name="hcircumflex" unicode="&#x125;" horiz-adv-x="1192" 
d="M260 755q52 87 142 138t206 51q188 0 297 -107t109 -290v-547h-69v547q0 151 -89.5 241t-253.5 90q-150 0 -246 -97t-96 -241v-540h-70v1440h70v-685zM835 1550l-232 224l-232 -224h-77l266 273h86l266 -273h-77z" />
    <glyph glyph-name="Itilde" unicode="&#x128;" horiz-adv-x="511" 
d="M292 0h-74v1400h74v-1400zM-71 1611q40 56 84.5 82.5t107.5 26.5q45 0 82.5 -14.5t60 -32.5t55.5 -32.5t69 -14.5q47 0 81.5 21t67.5 67l43 -40q-40 -56 -84.5 -82.5t-107.5 -26.5q-45 0 -82.5 15t-59.5 32.5t-55.5 32.5t-69.5 15q-47 0 -81.5 -21.5t-67.5 -67.5z" />
    <glyph glyph-name="itilde" unicode="&#x129;" horiz-adv-x="450" 
d="M260 0h-70v933h70v-933zM-86 1195q40 56 84.5 82.5t107.5 26.5q45 0 82.5 -14.5t60 -32.5t55.5 -32.5t69 -14.5q47 0 81.5 21t67.5 67l43 -40q-40 -56 -84.5 -82.5t-107.5 -26.5q-45 0 -82.5 15t-59.5 32.5t-55.5 32.5t-69.5 15q-47 0 -81.5 -21.5t-67.5 -67.5z" />
    <glyph glyph-name="Imacron" unicode="&#x12a;" horiz-adv-x="511" 
d="M292 0h-74v1400h74v-1400zM-29 1661h569v-58h-569v58z" />
    <glyph glyph-name="imacron" unicode="&#x12b;" horiz-adv-x="450" 
d="M260 0h-70v933h70v-933zM-59 1245h569v-58h-569v58z" />
    <glyph glyph-name="Ibreve" unicode="&#x12c;" horiz-adv-x="511" 
d="M292 0h-74v1400h74v-1400zM7 1776q27 -105 90.5 -159.5t157.5 -54.5t157.5 54.5t90.5 159.5l57 -17q-32 -125 -111 -191t-194 -66t-194 66t-111 191z" />
    <glyph glyph-name="ibreve" unicode="&#x12d;" horiz-adv-x="450" 
d="M260 0h-70v933h70v-933zM-23 1360q27 -105 90.5 -159.5t157.5 -54.5t157.5 54.5t90.5 159.5l57 -17q-32 -125 -111 -191t-194 -66t-194 66t-111 191z" />
    <glyph glyph-name="Iogonek" unicode="&#x12e;" horiz-adv-x="511" 
d="M292 0h-74v1400h74v-1400zM426 -326q-74 -83 -174 -83q-81 0 -132.5 46t-51.5 122q0 69 49.5 137.5t140.5 143.5l34 -40q-158 -144 -158 -237q0 -51 34 -81.5t89 -30.5q74 0 130 67z" />
    <glyph glyph-name="iogonek" unicode="&#x12f;" horiz-adv-x="450" 
d="M394 -326q-74 -83 -174 -83q-81 0 -132.5 46t-51.5 122q0 69 49.5 137.5t140.5 143.5l34 -40q-158 -144 -158 -237q0 -51 34 -81.5t89 -30.5q74 0 130 67zM260 0h-70v933h70v-933zM225 1327q22 0 37 -15t15 -37t-15 -36.5t-37 -14.5t-36.5 14.5t-14.5 36.5t14.5 37
t36.5 15z" />
    <glyph glyph-name="Idotaccent" unicode="&#x130;" horiz-adv-x="511" 
d="M292 0h-74v1400h74v-1400zM249 1687q22 0 37.5 -15.5t15.5 -37.5t-15.5 -37t-37.5 -15t-37 15t-15 37t15 37.5t37 15.5z" />
    <glyph glyph-name="dotlessi" unicode="&#x131;" horiz-adv-x="450" 
d="M260 0h-70v933h70v-933z" />
    <glyph glyph-name="Kcommaaccent" unicode="&#x136;" horiz-adv-x="1340" 
d="M498 669h-206v-669h-74v1400h74v-661h207l658 661h97l-696 -692l738 -708h-102zM729 -89l-61 -327h-62l48 327h75z" />
    <glyph glyph-name="kcommaaccent" unicode="&#x137;" horiz-adv-x="1023" 
d="M260 522h173l435 411h89l-470 -441l480 -492h-89l-446 458h-172v-458h-70v1440h70v-918zM604 -89l-61 -327h-62l48 327h75z" />
    <glyph glyph-name="Lacute" unicode="&#x139;" horiz-adv-x="1193" 
d="M1149 0h-931v1400h74v-1329h857v-71zM136 1485l233 300h89l-251 -300h-71z" />
    <glyph glyph-name="lacute" unicode="&#x13a;" horiz-adv-x="450" 
d="M260 0h-70v1440h70v-1440zM66 1547l233 300h89l-251 -300h-71z" />
    <glyph glyph-name="Lcommaaccent" unicode="&#x13b;" horiz-adv-x="1193" 
d="M1149 0h-931v1400h74v-1329h857v-71zM729 -89l-61 -327h-62l48 327h75z" />
    <glyph glyph-name="lcommaaccent" unicode="&#x13c;" horiz-adv-x="450" 
d="M260 0h-70v1440h70v-1440zM283 -89l-61 -327h-62l48 327h75z" />
    <glyph glyph-name="Lcaron" unicode="&#x13d;" horiz-adv-x="1193" 
d="M1149 0h-931v1400h74v-1329h857v-71zM587 1012l16 389h71l-27 -389h-60z" />
    <glyph glyph-name="lcaron" unicode="&#x13e;" horiz-adv-x="468" 
d="M260 0h-70v1440h70v-1440zM380 1051l16 389h71l-27 -389h-60z" />
    <glyph glyph-name="Ldot" unicode="&#x13f;" horiz-adv-x="1193" 
d="M1149 0h-931v1400h74v-1329h857v-71zM832 759q22 0 37.5 -15.5t15.5 -37.5t-15.5 -37t-37.5 -15t-37 15t-15 37t15 37.5t37 15.5z" />
    <glyph glyph-name="ldot" unicode="&#x140;" horiz-adv-x="511" 
d="M260 0h-70v1440h70v-1440zM476 783q22 0 37 -15t15 -37t-15 -36.5t-37 -14.5t-36.5 14.5t-14.5 36.5t14.5 37t36.5 15z" />
    <glyph glyph-name="Lslash" unicode="&#x141;" horiz-adv-x="1352" 
d="M1308 0h-931v563l-246 -139v81l246 139v756h74v-714l561 319v-81l-561 -319v-534h857v-71z" />
    <glyph glyph-name="lslash" unicode="&#x142;" horiz-adv-x="641" 
d="M356 820l228 173v-74l-228 -173v-746h-70v693l-229 -174v74l229 174v673h70v-620z" />
    <glyph glyph-name="Nacute" unicode="&#x143;" horiz-adv-x="1558" 
d="M1339 0h-67l-979 1271l-1 -1271h-74v1400h67l979 -1271v1271h75v-1400zM659 1485l233 300h89l-251 -300h-71z" />
    <glyph glyph-name="nacute" unicode="&#x144;" horiz-adv-x="1192" 
d="M608 944q188 0 297 -107t109 -290v-547h-69v547q0 151 -89.5 241t-253.5 90q-150 0 -246 -97t-96 -241v-540h-70v933h69v-179q52 87 142 138.5t207 51.5zM507 1069l233 300h89l-251 -300h-71z" />
    <glyph glyph-name="Ncommaaccent" unicode="&#x145;" horiz-adv-x="1558" 
d="M1339 0h-67l-979 1271l-1 -1271h-74v1400h67l979 -1271v1271h75v-1400zM837 -89l-61 -327h-62l48 327h75z" />
    <glyph glyph-name="ncommaaccent" unicode="&#x146;" horiz-adv-x="1192" 
d="M608 944q188 0 297 -107t109 -290v-547h-69v547q0 151 -89.5 241t-253.5 90q-150 0 -246 -97t-96 -241v-540h-70v933h69v-179q52 87 142 138.5t207 51.5zM657 -89l-61 -327h-62l48 327h75z" />
    <glyph glyph-name="Ncaron" unicode="&#x147;" horiz-adv-x="1558" 
d="M1339 0h-67l-979 1271l-1 -1271h-74v1400h67l979 -1271v1271h75v-1400zM546 1768l232 -223l232 223h77l-266 -273h-86l-266 273h77z" />
    <glyph glyph-name="ncaron" unicode="&#x148;" horiz-adv-x="1192" 
d="M608 944q188 0 297 -107t109 -290v-547h-69v547q0 151 -89.5 241t-253.5 90q-150 0 -246 -97t-96 -241v-540h-70v933h69v-179q52 87 142 138.5t207 51.5zM378 1352l232 -223l232 223h77l-266 -273h-86l-266 273h77z" />
    <glyph glyph-name="napostrophe" unicode="&#x149;" horiz-adv-x="1476" 
d="M309 1440l-85 -456h-61l66 456h80zM892 944q188 0 297 -107t109 -290v-547h-69v547q0 151 -89.5 241t-253.5 90q-150 0 -246 -97t-96 -241v-540h-70v933h69v-179q52 87 142 138.5t207 51.5z" />
    <glyph glyph-name="Omacron" unicode="&#x14c;" horiz-adv-x="1681" 
d="M841 1411q198 0 360 -89t256 -252t94 -370t-94 -370t-256 -252t-360 -89t-360 89t-256 252t-94 370t94 370t256 252t360 89zM841 1340q-176 0 -319.5 -79t-228 -226t-84.5 -335t84.5 -335t228 -226t319.5 -79q131 0 247 46.5t201 129t134.5 203t49.5 261.5t-49.5 261.5
t-134.5 203t-201 129t-247 46.5zM557 1661h569v-58h-569v58z" />
    <glyph glyph-name="omacron" unicode="&#x14d;" horiz-adv-x="1178" 
d="M588 944q204 0 341 -137t137 -341t-137 -340.5t-341 -136.5q-203 0 -339 136.5t-136 340.5t136 341t339 137zM588 878q-172 0 -288 -117.5t-116 -294.5q0 -176 116 -293.5t288 -117.5q174 0 290.5 117t116.5 294t-116.5 294.5t-290.5 117.5zM305 1245h569v-58h-569v58z
" />
    <glyph glyph-name="Obreve" unicode="&#x14e;" horiz-adv-x="1681" 
d="M841 1411q198 0 360 -89t256 -252t94 -370t-94 -370t-256 -252t-360 -89t-360 89t-256 252t-94 370t94 370t256 252t360 89zM841 1340q-176 0 -319.5 -79t-228 -226t-84.5 -335t84.5 -335t228 -226t319.5 -79q131 0 247 46.5t201 129t134.5 203t49.5 261.5t-49.5 261.5
t-134.5 203t-201 129t-247 46.5zM593 1776q27 -105 90.5 -159.5t157.5 -54.5t157.5 54.5t90.5 159.5l57 -17q-32 -125 -111 -191t-194 -66t-194 66t-111 191z" />
    <glyph glyph-name="obreve" unicode="&#x14f;" horiz-adv-x="1178" 
d="M588 944q204 0 341 -137t137 -341t-137 -340.5t-341 -136.5q-203 0 -339 136.5t-136 340.5t136 341t339 137zM588 878q-172 0 -288 -117.5t-116 -294.5q0 -176 116 -293.5t288 -117.5q174 0 290.5 117t116.5 294t-116.5 294.5t-290.5 117.5zM341 1360
q27 -105 90.5 -159.5t157.5 -54.5t157.5 54.5t90.5 159.5l57 -17q-32 -125 -111 -191t-194 -66t-194 66t-111 191z" />
    <glyph glyph-name="Ohungarumlaut" unicode="&#x150;" horiz-adv-x="1681" 
d="M841 1411q198 0 360 -89t256 -252t94 -370t-94 -370t-256 -252t-360 -89t-360 89t-256 252t-94 370t94 370t256 252t360 89zM841 1340q-176 0 -319.5 -79t-228 -226t-84.5 -335t84.5 -335t228 -226t319.5 -79q131 0 247 46.5t201 129t134.5 203t49.5 261.5t-49.5 261.5
t-134.5 203t-201 129t-247 46.5zM943 1485l236 300h82l-246 -300h-72zM602 1485l229 300h80l-237 -300h-72z" />
    <glyph glyph-name="ohungarumlaut" unicode="&#x151;" horiz-adv-x="1178" 
d="M588 944q204 0 341 -137t137 -341t-137 -340.5t-341 -136.5q-203 0 -339 136.5t-136 340.5t136 341t339 137zM588 878q-172 0 -288 -117.5t-116 -294.5q0 -176 116 -293.5t288 -117.5q174 0 290.5 117t116.5 294t-116.5 294.5t-290.5 117.5zM703 1069l236 300h82
l-246 -300h-72zM362 1069l229 300h80l-237 -300h-72z" />
    <glyph glyph-name="OE" unicode="&#x152;" horiz-adv-x="2262" 
d="M2087 0h-1184q-361 0 -566.5 186.5t-205.5 513.5t205.5 513.5t566.5 186.5h1180v-70h-859v-590h837v-70h-837v-600h863v-70zM209 700q0 -294 182 -461.5t512 -167.5h247v1258h-247q-330 0 -512 -167.5t-182 -461.5z" />
    <glyph glyph-name="oe" unicode="&#x153;" horiz-adv-x="2002" 
d="M1456 944q183 0 306.5 -133t127.5 -338v-16q0 -10 -1 -15h-823q8 -175 117.5 -281t275.5 -106q199 0 340 150l42 -48q-152 -168 -386 -168q-150 0 -262.5 76.5t-163.5 207.5q-52 -130 -170 -207t-271 -77q-203 0 -339 136.5t-136 340.5t136 341t339 137
q153 0 271.5 -78.5t170.5 -209.5q51 132 165.5 210t260.5 78zM588 878q-172 0 -288 -117.5t-116 -294.5q0 -176 116 -293.5t288 -117.5q173 0 290 117.5t117 293.5q0 177 -117 294.5t-290 117.5zM1452 878q-157 0 -264.5 -104.5t-121.5 -267.5h750q-10 161 -113 266.5
t-251 105.5z" />
    <glyph glyph-name="Racute" unicode="&#x154;" horiz-adv-x="1327" 
d="M732 1400q228 0 353 -100t125 -282q0 -180 -127 -281.5t-350 -101.5h-94l563 -635h-93l-558 635h-259v-635h-74v1400h514zM292 1330v-627h442q192 0 295.5 81.5t103.5 233.5q0 150 -104 231t-295 81h-442zM538 1485l233 300h89l-251 -300h-71z" />
    <glyph glyph-name="racute" unicode="&#x155;" horiz-adv-x="793" 
d="M556 944q104 0 180 -40l-19 -64q-68 39 -167 39q-132 0 -211.5 -98.5t-79.5 -244.5v-536h-69v933h69v-164q99 175 297 175zM353 1069l233 300h89l-251 -300h-71z" />
    <glyph glyph-name="Rcommaaccent" unicode="&#x156;" horiz-adv-x="1327" 
d="M732 1400q228 0 353 -100t125 -282q0 -180 -127 -281.5t-350 -101.5h-94l563 -635h-93l-558 635h-259v-635h-74v1400h514zM292 1330v-627h442q192 0 295.5 81.5t103.5 233.5q0 150 -104 231t-295 81h-442zM713 -89l-61 -327h-62l48 327h75z" />
    <glyph glyph-name="rcommaaccent" unicode="&#x157;" horiz-adv-x="793" 
d="M556 944q104 0 180 -40l-19 -64q-68 39 -167 39q-132 0 -211.5 -98.5t-79.5 -244.5v-536h-69v933h69v-164q99 175 297 175zM283 -89l-61 -327h-62l48 327h75z" />
    <glyph glyph-name="Rcaron" unicode="&#x158;" horiz-adv-x="1327" 
d="M732 1400q228 0 353 -100t125 -282q0 -180 -127 -281.5t-350 -101.5h-94l563 -635h-93l-558 635h-259v-635h-74v1400h514zM292 1330v-627h442q192 0 295.5 81.5t103.5 233.5q0 150 -104 231t-295 81h-442zM425 1768l232 -223l232 223h77l-266 -273h-86l-266 273h77z" />
    <glyph glyph-name="rcaron" unicode="&#x159;" horiz-adv-x="793" 
d="M556 944q104 0 180 -40l-19 -64q-68 39 -167 39q-132 0 -211.5 -98.5t-79.5 -244.5v-536h-69v933h69v-164q99 175 297 175zM224 1352l232 -223l232 223h77l-266 -273h-86l-266 273h77z" />
    <glyph glyph-name="Sacute" unicode="&#x15a;" horiz-adv-x="1340" 
d="M1128 1195q-196 145 -460 145q-187 0 -305.5 -83.5t-118.5 -228.5q0 -243 366 -280l179 -19q205 -23 312.5 -105t107.5 -241q0 -97 -42.5 -173.5t-118 -124t-173 -72t-212.5 -24.5q-153 0 -296 49t-236 121l41 59q85 -65 216 -111.5t275 -46.5q100 0 184 19.5t148 57.5
t100.5 99.5t36.5 140.5q0 127 -92 193.5t-280 87.5l-183 19q-410 43 -410 347q0 121 67 210t179.5 133t255.5 44q285 0 497 -156zM573 1485l233 300h89l-251 -300h-71z" />
    <glyph glyph-name="sacute" unicode="&#x15b;" horiz-adv-x="961" 
d="M808 780q-56 41 -144 70t-185 29q-125 0 -204.5 -52t-79.5 -142q0 -148 241 -175l131 -14q299 -31 299 -239q0 -128 -108 -198t-285 -70q-221 0 -378 118l35 55q135 -108 344 -108q144 0 232.5 50.5t88.5 148.5q0 154 -242 178l-132 13q-153 15 -225.5 78t-72.5 160
q0 121 98.5 191t256.5 70q107 0 203 -30t160 -77zM388 1069l233 300h89l-251 -300h-71z" />
    <glyph glyph-name="Scircumflex" unicode="&#x15c;" horiz-adv-x="1340" 
d="M1128 1195q-196 145 -460 145q-187 0 -305.5 -83.5t-118.5 -228.5q0 -243 366 -280l179 -19q205 -23 312.5 -105t107.5 -241q0 -97 -42.5 -173.5t-118 -124t-173 -72t-212.5 -24.5q-153 0 -296 49t-236 121l41 59q85 -65 216 -111.5t275 -46.5q100 0 184 19.5t148 57.5
t100.5 99.5t36.5 140.5q0 127 -92 193.5t-280 87.5l-183 19q-410 43 -410 347q0 121 67 210t179.5 133t255.5 44q285 0 497 -156zM924 1499l-232 224l-232 -224h-77l266 273h86l266 -273h-77z" />
    <glyph glyph-name="scircumflex" unicode="&#x15d;" horiz-adv-x="961" 
d="M808 780q-56 41 -144 70t-185 29q-125 0 -204.5 -52t-79.5 -142q0 -148 241 -175l131 -14q299 -31 299 -239q0 -128 -108 -198t-285 -70q-221 0 -378 118l35 55q135 -108 344 -108q144 0 232.5 50.5t88.5 148.5q0 154 -242 178l-132 13q-153 15 -225.5 78t-72.5 160
q0 121 98.5 191t256.5 70q107 0 203 -30t160 -77zM723 1083l-232 224l-232 -224h-77l266 273h86l266 -273h-77z" />
    <glyph glyph-name="Scedilla" unicode="&#x15e;" horiz-adv-x="1340" 
d="M635 -325h-76l107 330l72 -2zM1128 1195q-196 145 -460 145q-187 0 -305.5 -83.5t-118.5 -228.5q0 -243 366 -280l179 -19q205 -23 312.5 -105t107.5 -241q0 -97 -42.5 -173.5t-118 -124t-173 -72t-212.5 -24.5q-153 0 -296 49t-236 121l41 59q85 -65 216 -111.5
t275 -46.5q100 0 184 19.5t148 57.5t100.5 99.5t36.5 140.5q0 127 -92 193.5t-280 87.5l-183 19q-410 43 -410 347q0 121 67 210t179.5 133t255.5 44q285 0 497 -156z" />
    <glyph glyph-name="scedilla" unicode="&#x15f;" horiz-adv-x="961" 
d="M808 780q-56 41 -144 70t-185 29q-125 0 -204.5 -52t-79.5 -142q0 -148 241 -175l131 -14q299 -31 299 -239q0 -128 -108 -198t-285 -70q-221 0 -378 118l35 55q135 -108 344 -108q144 0 232.5 50.5t88.5 148.5q0 154 -242 178l-132 13q-153 15 -225.5 78t-72.5 160
q0 121 98.5 191t256.5 70q107 0 203 -30t160 -77zM441 -325h-73l107 330l69 -2z" />
    <glyph glyph-name="Scaron" unicode="&#x160;" horiz-adv-x="1340" 
d="M1128 1195q-196 145 -460 145q-187 0 -305.5 -83.5t-118.5 -228.5q0 -243 366 -280l179 -19q205 -23 312.5 -105t107.5 -241q0 -97 -42.5 -173.5t-118 -124t-173 -72t-212.5 -24.5q-153 0 -296 49t-236 121l41 59q85 -65 216 -111.5t275 -46.5q100 0 184 19.5t148 57.5
t100.5 99.5t36.5 140.5q0 127 -92 193.5t-280 87.5l-183 19q-410 43 -410 347q0 121 67 210t179.5 133t255.5 44q285 0 497 -156zM460 1768l232 -223l232 223h77l-266 -273h-86l-266 273h77z" />
    <glyph glyph-name="scaron" unicode="&#x161;" horiz-adv-x="961" 
d="M808 780q-56 41 -144 70t-185 29q-125 0 -204.5 -52t-79.5 -142q0 -148 241 -175l131 -14q299 -31 299 -239q0 -128 -108 -198t-285 -70q-221 0 -378 118l35 55q135 -108 344 -108q144 0 232.5 50.5t88.5 148.5q0 154 -242 178l-132 13q-153 15 -225.5 78t-72.5 160
q0 121 98.5 191t256.5 70q107 0 203 -30t160 -77zM259 1352l232 -223l232 223h77l-266 -273h-86l-266 273h77z" />
    <glyph glyph-name="Tcommaaccent" unicode="&#x162;" horiz-adv-x="1218" 
d="M542 -325h-76l107 330l72 -2zM1174 1329h-528v-1329h-74v1329h-528v71h1130v-71z" />
    <glyph glyph-name="tcommaaccent" unicode="&#x163;" horiz-adv-x="903" 
d="M819 869h-463v-557q0 -128 62 -192.5t172 -64.5q134 0 224 79l35 -51q-106 -94 -264 -94q-143 0 -221 81.5t-78 240.5v558h-229v64h229v315h70v-315h463v-64zM513 -325h-73l107 330l69 -2z" />
    <glyph glyph-name="Tcaron" unicode="&#x164;" horiz-adv-x="1218" 
d="M1174 1329h-528v-1329h-74v1329h-528v71h1130v-71zM377 1768l232 -223l232 223h77l-266 -273h-86l-266 273h77z" />
    <glyph glyph-name="tcaron" unicode="&#x165;" horiz-adv-x="903" 
d="M819 869h-463v-557q0 -128 62 -192.5t172 -64.5q134 0 224 79l35 -51q-106 -94 -264 -94q-143 0 -221 81.5t-78 240.5v558h-229v64h229v315h70v-315h463v-64zM524 1051l16 389h71l-27 -389h-60z" />
    <glyph glyph-name="Utilde" unicode="&#x168;" horiz-adv-x="1500" 
d="M1303 542q0 -134 -43.5 -240.5t-119 -174t-175 -103t-215.5 -35.5t-216 35.5t-176 103t-119 174t-43 240.5v858h75v-853q0 -119 37 -213t102 -153t151.5 -89.5t188.5 -30.5t188 30.5t151 89.5t102 153t37 213v853h75v-858zM424 1611q40 56 84.5 82.5t107.5 26.5
q45 0 82.5 -14.5t60 -32.5t55.5 -32.5t69 -14.5q47 0 81.5 21t67.5 67l43 -40q-40 -56 -84.5 -82.5t-107.5 -26.5q-45 0 -82.5 15t-59.5 32.5t-55.5 32.5t-69.5 15q-47 0 -81.5 -21.5t-67.5 -67.5z" />
    <glyph glyph-name="utilde" unicode="&#x169;" horiz-adv-x="1180" 
d="M1002 381q0 -182 -115.5 -287t-296.5 -105q-182 0 -296.5 104.5t-114.5 287.5v552h69v-546q0 -155 94 -243.5t248 -88.5t248 88.5t94 243.5v546h70v-552zM279 1195q40 56 84.5 82.5t107.5 26.5q45 0 82.5 -14.5t60 -32.5t55.5 -32.5t69 -14.5q47 0 81.5 21t67.5 67
l43 -40q-40 -56 -84.5 -82.5t-107.5 -26.5q-45 0 -82.5 15t-59.5 32.5t-55.5 32.5t-69.5 15q-47 0 -81.5 -21.5t-67.5 -67.5z" />
    <glyph glyph-name="Umacron" unicode="&#x16a;" horiz-adv-x="1500" 
d="M1303 542q0 -134 -43.5 -240.5t-119 -174t-175 -103t-215.5 -35.5t-216 35.5t-176 103t-119 174t-43 240.5v858h75v-853q0 -119 37 -213t102 -153t151.5 -89.5t188.5 -30.5t188 30.5t151 89.5t102 153t37 213v853h75v-858zM466 1661h569v-58h-569v58z" />
    <glyph glyph-name="umacron" unicode="&#x16b;" horiz-adv-x="1180" 
d="M1002 381q0 -182 -115.5 -287t-296.5 -105q-182 0 -296.5 104.5t-114.5 287.5v552h69v-546q0 -155 94 -243.5t248 -88.5t248 88.5t94 243.5v546h70v-552zM306 1245h569v-58h-569v58z" />
    <glyph glyph-name="Ubreve" unicode="&#x16c;" horiz-adv-x="1500" 
d="M1303 542q0 -134 -43.5 -240.5t-119 -174t-175 -103t-215.5 -35.5t-216 35.5t-176 103t-119 174t-43 240.5v858h75v-853q0 -119 37 -213t102 -153t151.5 -89.5t188.5 -30.5t188 30.5t151 89.5t102 153t37 213v853h75v-858zM502 1776q27 -105 90.5 -159.5t157.5 -54.5
t157.5 54.5t90.5 159.5l57 -17q-32 -125 -111 -191t-194 -66t-194 66t-111 191z" />
    <glyph glyph-name="ubreve" unicode="&#x16d;" horiz-adv-x="1180" 
d="M1002 381q0 -182 -115.5 -287t-296.5 -105q-182 0 -296.5 104.5t-114.5 287.5v552h69v-546q0 -155 94 -243.5t248 -88.5t248 88.5t94 243.5v546h70v-552zM342 1360q27 -105 90.5 -159.5t157.5 -54.5t157.5 54.5t90.5 159.5l57 -17q-32 -125 -111 -191t-194 -66t-194 66
t-111 191z" />
    <glyph glyph-name="Uring" unicode="&#x16e;" horiz-adv-x="1500" 
d="M1303 542q0 -134 -43.5 -240.5t-119 -174t-175 -103t-215.5 -35.5t-216 35.5t-176 103t-119 174t-43 240.5v858h75v-853q0 -119 37 -213t102 -153t151.5 -89.5t188.5 -30.5t188 30.5t151 89.5t102 153t37 213v853h75v-858zM750 1474q-82 0 -141 58t-59 140q0 81 59 140
t141 59q81 0 140 -59t59 -140t-59 -139.5t-140 -58.5zM750 1528q60 0 101.5 41.5t41.5 102.5t-41.5 102.5t-101.5 41.5q-61 0 -102.5 -41.5t-41.5 -102.5t41.5 -102.5t102.5 -41.5z" />
    <glyph glyph-name="uring" unicode="&#x16f;" horiz-adv-x="1180" 
d="M1002 381q0 -182 -115.5 -287t-296.5 -105q-182 0 -296.5 104.5t-114.5 287.5v552h69v-546q0 -155 94 -243.5t248 -88.5t248 88.5t94 243.5v546h70v-552zM590 1058q-82 0 -141 58t-59 140q0 81 59 140t141 59q81 0 140 -59t59 -140t-59 -139.5t-140 -58.5zM590 1112
q60 0 101.5 41.5t41.5 102.5t-41.5 102.5t-101.5 41.5q-61 0 -102.5 -41.5t-41.5 -102.5t41.5 -102.5t102.5 -41.5z" />
    <glyph glyph-name="Uhungarumlaut" unicode="&#x170;" horiz-adv-x="1500" 
d="M1303 542q0 -134 -43.5 -240.5t-119 -174t-175 -103t-215.5 -35.5t-216 35.5t-176 103t-119 174t-43 240.5v858h75v-853q0 -119 37 -213t102 -153t151.5 -89.5t188.5 -30.5t188 30.5t151 89.5t102 153t37 213v853h75v-858zM852 1485l236 300h82l-246 -300h-72zM511 1485
l229 300h80l-237 -300h-72z" />
    <glyph glyph-name="uhungarumlaut" unicode="&#x171;" horiz-adv-x="1180" 
d="M1002 381q0 -182 -115.5 -287t-296.5 -105q-182 0 -296.5 104.5t-114.5 287.5v552h69v-546q0 -155 94 -243.5t248 -88.5t248 88.5t94 243.5v546h70v-552zM704 1069l236 300h82l-246 -300h-72zM363 1069l229 300h80l-237 -300h-72z" />
    <glyph glyph-name="Uogonek" unicode="&#x172;" horiz-adv-x="1500" 
d="M1303 542q0 -134 -43.5 -240.5t-119 -174t-175 -103t-215.5 -35.5t-216 35.5t-176 103t-119 174t-43 240.5v858h75v-853q0 -119 37 -213t102 -153t151.5 -89.5t188.5 -30.5t188 30.5t151 89.5t102 153t37 213v853h75v-858zM1150 -323q-86 -86 -209 -86q-98 0 -160 54.5
t-62 140.5q0 43 15 80.5t37 65t62.5 57.5t75.5 51t92 51l31 -38q-125 -70 -185 -127t-60 -134q0 -64 44 -102.5t115 -38.5q97 0 165 71z" />
    <glyph glyph-name="uogonek" unicode="&#x173;" horiz-adv-x="1180" 
d="M1002 381q0 -182 -115.5 -287t-296.5 -105q-182 0 -296.5 104.5t-114.5 287.5v552h69v-546q0 -155 94 -243.5t248 -88.5t248 88.5t94 243.5v546h70v-552zM949 -323q-86 -86 -209 -86q-98 0 -160 54.5t-62 140.5q0 43 15 80.5t37 65t62.5 57.5t75.5 51t92 51l31 -38
q-125 -70 -185 -127t-60 -134q0 -64 44 -102.5t115 -38.5q97 0 165 71z" />
    <glyph glyph-name="Ydieresis" unicode="&#x178;" horiz-adv-x="1232" 
d="M654 619v-619h-74v619l-567 781h90l514 -710l515 710h87zM411 1684q22 0 37 -14.5t15 -36.5t-15 -37t-37 -15t-36.5 15t-14.5 37t14.5 36.5t36.5 14.5zM825 1684q22 0 37 -14.5t15 -36.5t-15 -37t-37 -15t-36.5 15t-14.5 37t14.5 36.5t36.5 14.5z" />
    <glyph glyph-name="Zacute" unicode="&#x179;" horiz-adv-x="1343" 
d="M1207 1344l-977 -1273h982v-71h-1081v58l976 1271h-955v71h1055v-56zM560 1485l233 300h89l-251 -300h-71z" />
    <glyph glyph-name="zacute" unicode="&#x17a;" horiz-adv-x="1078" 
d="M937 881l-711 -817h719v-64h-812v51l714 818h-693v64h783v-52zM443 1069l233 300h89l-251 -300h-71z" />
    <glyph glyph-name="Zdotaccent" unicode="&#x17b;" horiz-adv-x="1343" 
d="M1207 1344l-977 -1273h982v-71h-1081v58l976 1271h-955v71h1055v-56zM673 1687q22 0 37.5 -15.5t15.5 -37.5t-15.5 -37t-37.5 -15t-37 15t-15 37t15 37.5t37 15.5z" />
    <glyph glyph-name="zdotaccent" unicode="&#x17c;" horiz-adv-x="1078" 
d="M937 881l-711 -817h719v-64h-812v51l714 818h-693v64h783v-52zM546 1327q22 0 37 -15t15 -37t-15 -36.5t-37 -14.5t-36.5 14.5t-14.5 36.5t14.5 37t36.5 15z" />
    <glyph glyph-name="Zcaron" unicode="&#x17d;" horiz-adv-x="1343" 
d="M1207 1344l-977 -1273h982v-71h-1081v58l976 1271h-955v71h1055v-56zM447 1768l232 -223l232 223h77l-266 -273h-86l-266 273h77z" />
    <glyph glyph-name="zcaron" unicode="&#x17e;" horiz-adv-x="1078" 
d="M937 881l-711 -817h719v-64h-812v51l714 818h-693v64h783v-52zM314 1352l232 -223l232 223h77l-266 -273h-86l-266 273h77z" />
    <glyph glyph-name="longs" unicode="&#x17f;" horiz-adv-x="660" 
d="M487 1451q138 0 248 -70l-26 -58q-97 62 -218 62q-127 0 -184 -74.5t-57 -215.5v-1095h-70v1095q0 356 307 356z" />
    <glyph glyph-name="Scommaaccent" unicode="&#x218;" horiz-adv-x="1340" 
d="M1128 1195q-196 145 -460 145q-187 0 -305.5 -83.5t-118.5 -228.5q0 -243 366 -280l179 -19q205 -23 312.5 -105t107.5 -241q0 -97 -42.5 -173.5t-118 -124t-173 -72t-212.5 -24.5q-153 0 -296 49t-236 121l41 59q85 -65 216 -111.5t275 -46.5q100 0 184 19.5t148 57.5
t100.5 99.5t36.5 140.5q0 127 -92 193.5t-280 87.5l-183 19q-410 43 -410 347q0 121 67 210t179.5 133t255.5 44q285 0 497 -156zM763 -89l-61 -327h-62l48 327h75z" />
    <glyph glyph-name="scommaaccent" unicode="&#x219;" horiz-adv-x="961" 
d="M808 780q-56 41 -144 70t-185 29q-125 0 -204.5 -52t-79.5 -142q0 -148 241 -175l131 -14q299 -31 299 -239q0 -128 -108 -198t-285 -70q-221 0 -378 118l35 55q135 -108 344 -108q144 0 232.5 50.5t88.5 148.5q0 154 -242 178l-132 13q-153 15 -225.5 78t-72.5 160
q0 121 98.5 191t256.5 70q107 0 203 -30t160 -77zM541 -89l-61 -327h-62l48 327h75z" />
    <glyph glyph-name="uni021A" unicode="&#x21a;" horiz-adv-x="1218" 
d="M1174 1329h-528v-1329h-74v1329h-528v71h1130v-71zM670 -89l-61 -327h-62l48 327h75z" />
    <glyph glyph-name="uni021B" unicode="&#x21b;" horiz-adv-x="903" 
d="M819 869h-463v-557q0 -128 62 -192.5t172 -64.5q134 0 224 79l35 -51q-106 -94 -264 -94q-143 0 -221 81.5t-78 240.5v558h-229v64h229v315h70v-315h463v-64zM613 -89l-61 -327h-62l48 327h75z" />
    <glyph glyph-name="gravecomb" unicode="&#x300;" horiz-adv-x="1" 
d="M-819 1369h88l234 -300h-71z" />
    <glyph glyph-name="acutecomb" unicode="&#x301;" horiz-adv-x="1" 
d="M-692 1069l233 300h89l-251 -300h-71z" />
    <glyph glyph-name="uni0302" unicode="&#x302;" horiz-adv-x="1" 
d="M-357 1083l-232 224l-232 -224h-77l266 273h86l266 -273h-77z" />
    <glyph glyph-name="tildecomb" unicode="&#x303;" horiz-adv-x="1" 
d="M-900 1195q40 56 84.5 82.5t107.5 26.5q45 0 82.5 -14.5t60 -32.5t55.5 -32.5t69 -14.5q47 0 81.5 21t67.5 67l43 -40q-40 -56 -84.5 -82.5t-107.5 -26.5q-45 0 -82.5 15t-59.5 32.5t-55.5 32.5t-69.5 15q-47 0 -81.5 -21.5t-67.5 -67.5z" />
    <glyph glyph-name="uni0304" unicode="&#x304;" horiz-adv-x="1" 
d="M-873 1245h569v-58h-569v58z" />
    <glyph glyph-name="uni0306" unicode="&#x306;" horiz-adv-x="1" 
d="M-837 1360q27 -105 90.5 -159.5t157.5 -54.5t157.5 54.5t90.5 159.5l57 -17q-32 -125 -111 -191t-194 -66t-194 66t-111 191z" />
    <glyph glyph-name="uni0307" unicode="&#x307;" horiz-adv-x="1" 
d="M-589 1327q22 0 37 -15t15 -37t-15 -36.5t-37 -14.5t-36.5 14.5t-14.5 36.5t14.5 37t36.5 15z" />
    <glyph glyph-name="uni0308" unicode="&#x308;" horiz-adv-x="1" 
d="M-796 1268q22 0 37 -14.5t15 -36.5t-15 -37t-37 -15t-36.5 15t-14.5 37t14.5 36.5t36.5 14.5zM-382 1268q22 0 37 -14.5t15 -36.5t-15 -37t-37 -15t-36.5 15t-14.5 37t14.5 36.5t36.5 14.5z" />
    <glyph glyph-name="uni030A" unicode="&#x30a;" horiz-adv-x="1" 
d="M-589 1058q-82 0 -141 58t-59 140q0 81 59 140t141 59q81 0 140 -59t59 -140t-59 -139.5t-140 -58.5zM-589 1112q60 0 101.5 41.5t41.5 102.5t-41.5 102.5t-101.5 41.5q-61 0 -102.5 -41.5t-41.5 -102.5t41.5 -102.5t102.5 -41.5z" />
    <glyph glyph-name="uni030B" unicode="&#x30b;" horiz-adv-x="1" 
d="M-475 1069l236 300h82l-246 -300h-72zM-816 1069l229 300h80l-237 -300h-72z" />
    <glyph glyph-name="uni030C" unicode="&#x30c;" horiz-adv-x="1" 
d="M-821 1352l232 -223l232 223h77l-266 -273h-86l-266 273h77z" />
    <glyph glyph-name="uni0312" unicode="&#x312;" horiz-adv-x="1" 
d="M-636 1069l61 328h62l-47 -328h-76z" />
    <glyph glyph-name="uni0326" unicode="&#x326;" horiz-adv-x="1" 
d="M-530 -89l-61 -327h-62l48 327h75z" />
    <glyph glyph-name="uni0327" unicode="&#x327;" horiz-adv-x="1" 
d="M-603 -325h-73l107 330l69 -2z" />
    <glyph glyph-name="uni0328" unicode="&#x328;" horiz-adv-x="1" 
d="M-372 -323q-86 -86 -209 -86q-98 0 -160 54.5t-62 140.5q0 43 15 80.5t37 65t62.5 57.5t75.5 51t92 51l31 -38q-125 -70 -185 -127t-60 -134q0 -64 44 -102.5t115 -38.5q97 0 165 71z" />
    <glyph glyph-name="uni1E9E" unicode="&#x1e9e;" horiz-adv-x="1464" 
d="M764 726l407 437q-66 82 -167 129t-265 47q-211 0 -339 -108.5t-128 -304.5v-926h-75v930q0 221 147.5 351t395.5 130q201 0 326.5 -63t205.5 -175l-407 -437q206 -12 337.5 -114t131.5 -263q0 -167 -140 -268.5t-346 -101.5q-182 0 -322 62l20 70q129 -60 292 -60
q184 0 301 80.5t117 217.5q0 141 -123 226t-324 85h-45v56z" />
    <glyph glyph-name="uni2007" unicode="&#x2007;" 
 />
    <glyph glyph-name="uni2008" unicode="&#x2008;" horiz-adv-x="516" 
 />
    <glyph glyph-name="uni2009" unicode="&#x2009;" horiz-adv-x="175" 
 />
    <glyph glyph-name="uni200B" unicode="&#x200b;" horiz-adv-x="0" 
 />
    <glyph glyph-name="endash" unicode="&#x2013;" horiz-adv-x="1212" 
d="M1081 492h-950v64h950v-64z" />
    <glyph glyph-name="emdash" unicode="&#x2014;" horiz-adv-x="1631" 
d="M1566 492h-1500v64h1500v-64z" />
    <glyph glyph-name="quoteleft" unicode="&#x2018;" horiz-adv-x="480" 
d="M171 984l85 456h61l-66 -456h-80z" />
    <glyph glyph-name="quoteright" unicode="&#x2019;" horiz-adv-x="480" 
d="M309 1440l-85 -456h-61l66 456h80z" />
    <glyph glyph-name="quotesinglbase" unicode="&#x201a;" horiz-adv-x="480" 
d="M309 218l-85 -456h-61l66 456h80z" />
    <glyph glyph-name="quotedblleft" unicode="&#x201c;" horiz-adv-x="788" 
d="M171 984l85 456h61l-66 -456h-80zM479 984l85 456h61l-66 -456h-80z" />
    <glyph glyph-name="quotedblright" unicode="&#x201d;" horiz-adv-x="787" 
d="M616 1440l-85 -456h-61l66 456h80zM309 1440l-85 -456h-61l66 456h80z" />
    <glyph glyph-name="quotedblbase" unicode="&#x201e;" horiz-adv-x="787" 
d="M616 218l-85 -456h-61l66 456h80zM309 218l-85 -456h-61l66 456h80z" />
    <glyph glyph-name="bullet" unicode="&#x2022;" horiz-adv-x="885" 
d="M443 670q60 0 103 -42.5t43 -103.5q0 -60 -43 -103t-103 -43q-61 0 -103.5 43t-42.5 103q0 62 42.5 104t103.5 42z" />
    <glyph glyph-name="guilsinglleft" unicode="&#x2039;" horiz-adv-x="610" 
d="M425 167h-76l-195 357l195 357h76l-195 -357z" />
    <glyph glyph-name="guilsinglright" unicode="&#x203a;" horiz-adv-x="610" 
d="M185 881h76l195 -357l-195 -357h-76l195 357z" />
    <glyph glyph-name="Euro" unicode="&#x20ac;" horiz-adv-x="1400" 
d="M1048 513h-724q41 -215 172.5 -336t337.5 -121q148 0 259 65.5t175 180.5l48 -47q-73 -126 -196.5 -196t-285.5 -70q-237 0 -389 140t-195 384h-169v63h160q-6 60 -6 124t6 124h-160v63h169q43 244 195 384t389 140q162 0 287 -70t196 -194l-49 -49q-64 115 -175.5 180.5
t-259.5 65.5q-206 0 -337 -121t-172 -336h724v-63h-733q-7 -56 -7 -124q0 -69 7 -124h733v-63z" />
    <glyph glyph-name="trademark" unicode="&#x2122;" horiz-adv-x="1243" 
d="M1103 888v440l-192 -379h-52l-193 379v-440h-52v513h71l200 -391l199 391h71v-513h-52zM275 888v464h-187v48h425v-48h-186v-464h-52z" />
    <glyph glyph-name="CR" unicode="&#xe001;" horiz-adv-x="526" 
 />
    <glyph glyph-name="eight.lf" unicode="&#xe002;" horiz-adv-x="1249" 
d="M625 1411q129 0 234 -41.5t169 -125.5t64 -198q0 -127 -72 -213t-191 -124q134 -38 215.5 -125t81.5 -216q0 -120 -68.5 -207t-180.5 -129.5t-252 -42.5t-252 42.5t-181 129.5t-69 207q0 129 81.5 216t215.5 125q-119 38 -191 123.5t-72 213.5q0 170 134 267.5t334 97.5z
M625 676q-119 0 -214.5 -34.5t-153.5 -105.5t-58 -168q0 -99 58 -171t153 -106.5t215 -34.5q183 0 304 82t121 230q0 97 -58 168t-153 105.5t-214 34.5zM625 1343q-170 0 -281.5 -78.5t-111.5 -219.5q0 -98 54 -168.5t141.5 -104t197.5 -33.5q169 0 280.5 80.5t111.5 225.5
q0 141 -111.5 219.5t-280.5 78.5z" />
    <glyph glyph-name="eight.osf" unicode="&#xe003;" horiz-adv-x="1183" 
d="M592 1411q189 0 318 -100.5t129 -265.5q0 -124 -70 -210t-187 -126q129 -38 209.5 -126.5t80.5 -214.5q0 -115 -65 -202.5t-173.5 -132.5t-241.5 -45t-241.5 45t-174 132.5t-65.5 202.5q0 127 80.5 215t210.5 126q-117 40 -187 126t-70 210q0 165 129 265.5t318 100.5z
M592 675q-173 0 -290 -84t-117 -223q0 -143 116.5 -228t290.5 -85q113 0 204.5 36.5t146.5 108.5t55 168q0 140 -116.5 223.5t-289.5 83.5zM592 1344q-159 0 -266 -81.5t-107 -216.5q0 -140 107 -223.5t266 -83.5t266 83.5t107 223.5q0 135 -107 216.5t-266 81.5z" />
    <glyph glyph-name="eight.tosf" unicode="&#xe004;" 
d="M612 1411q189 0 318 -100.5t129 -265.5q0 -124 -70 -210t-187 -126q129 -38 209.5 -126.5t80.5 -214.5q0 -115 -65 -202.5t-173.5 -132.5t-241.5 -45t-241.5 45t-174 132.5t-65.5 202.5q0 127 80.5 215t210.5 126q-117 40 -187 126t-70 210q0 165 129 265.5t318 100.5z
M612 675q-173 0 -290 -84t-117 -223q0 -143 116.5 -228t290.5 -85q113 0 204.5 36.5t146.5 108.5t55 168q0 140 -116.5 223.5t-289.5 83.5zM612 1344q-159 0 -266 -81.5t-107 -216.5q0 -140 107 -223.5t266 -83.5t266 83.5t107 223.5q0 135 -107 216.5t-266 81.5z" />
    <glyph glyph-name="five.lf" unicode="&#xe005;" horiz-adv-x="1144" 
d="M959 1332h-660l-21 -514h235q242 0 371.5 -111t129.5 -290q0 -196 -129.5 -312t-333.5 -116q-286 0 -457 211l49 46q152 -188 408 -188q178 0 283.5 98t105.5 255q0 154 -113 246.5t-334 92.5h-284l24 650h726v-68z" />
    <glyph glyph-name="five.osf" unicode="&#xe006;" horiz-adv-x="1121" 
d="M949 950h-660l-21 -515h222q252 0 383 -111.5t131 -305.5q0 -189 -129.5 -300.5t-332.5 -111.5q-287 0 -457 212l50 44q152 -188 407 -188q178 0 283 94t105 244q0 172 -113.5 264t-346.5 92h-270l23 649h726v-67z" />
    <glyph glyph-name="five.tosf" unicode="&#xe007;" 
d="M988 950h-660l-21 -515h222q252 0 383 -111.5t131 -305.5q0 -189 -129.5 -300.5t-332.5 -111.5q-287 0 -457 212l50 44q152 -188 407 -188q178 0 283 94t105 244q0 172 -113.5 264t-346.5 92h-270l23 649h726v-67z" />
    <glyph glyph-name="four.lf" unicode="&#xe008;" horiz-adv-x="1152" 
d="M823 391h271v-68h-271v-323h-72v323h-693v56l523 1020h81l-518 -1008h607v408h72v-408z" />
    <glyph glyph-name="four.osf" unicode="&#xe009;" horiz-adv-x="1133" 
d="M789 67h292v-67h-292v-383h-70v383h-667v56l491 961h76l-484 -950h584v390h70v-390z" />
    <glyph glyph-name="four.tosf" unicode="&#xe00a;" 
d="M845 67h292v-67h-292v-383h-70v383h-667v56l491 961h76l-484 -950h584v390h70v-390z" />
    <glyph glyph-name="nine.lf" unicode="&#xe00b;" horiz-adv-x="1144" 
d="M816 580q-111 -57 -241 -57q-208 0 -344.5 127t-136.5 317t136.5 317t344.5 127t345 -127t137 -317q0 -129 -75 -251l-435 -716h-87zM575 590q177 0 292.5 107t115.5 270t-115.5 270t-292.5 107t-292 -107.5t-115 -269.5t115 -269.5t292 -107.5z" />
    <glyph glyph-name="nine.osf" unicode="&#xe00c;" horiz-adv-x="1126" 
d="M807 198q-110 -56 -241 -56q-208 0 -344.5 126.5t-136.5 317.5q0 190 136.5 316.5t343.5 126.5q208 0 345 -127t137 -317q0 -126 -75 -251l-434 -716h-87zM565 208q177 0 293 107t116 270q0 164 -115.5 270.5t-293.5 106.5q-177 0 -292 -107t-115 -270t115 -270t292 -107
z" />
    <glyph glyph-name="nine.tosf" unicode="&#xe00d;" 
d="M836 198q-110 -56 -241 -56q-208 0 -344.5 126.5t-136.5 317.5q0 190 136.5 316.5t343.5 126.5q208 0 345 -127t137 -317q0 -126 -75 -251l-434 -716h-87zM594 208q177 0 293 107t116 270q0 164 -115.5 270.5t-293.5 106.5q-177 0 -292 -107t-115 -270t115 -270t292 -107
z" />
    <glyph glyph-name="one.lf" unicode="&#xe00e;" horiz-adv-x="868" 
d="M637 0h-72v1306l-492 -213v75l564 242v-1410z" />
    <glyph glyph-name="one.osf" unicode="&#xe00f;" horiz-adv-x="749" 
d="M541 0h-71v936l-398 -141v70l469 167v-1032z" />
    <glyph glyph-name="one.tosf" unicode="&#xe010;" 
d="M628 68v873l-429 -122v70l500 143v-964h390v-68h-880v68h419z" />
    <glyph glyph-name="seven.lf" unicode="&#xe011;" horiz-adv-x="1093" 
d="M1021 1344l-668 -1344h-83l665 1332h-848v68h934v-56z" />
    <glyph glyph-name="seven.osf" unicode="&#xe012;" horiz-adv-x="1090" 
d="M1012 962l-669 -1345h-81l666 1333h-849v67h933v-55z" />
    <glyph glyph-name="seven.tosf" unicode="&#xe013;" 
d="M1091 962l-669 -1345h-81l666 1333h-849v67h933v-55z" />
    <glyph glyph-name="six.lf" unicode="&#xe014;" horiz-adv-x="1144" 
d="M328 820q111 57 241 57q208 0 344.5 -127t136.5 -317q0 -191 -136.5 -317.5t-344.5 -126.5t-345 127t-137 317q0 128 75 252l434 715h88zM569 810q-177 0 -292.5 -107t-115.5 -270t115.5 -270t292.5 -107t292 107t115 270t-115 270t-292 107z" />
    <glyph glyph-name="six.osf" unicode="&#xe015;" horiz-adv-x="1126" 
d="M320 820q112 56 241 56q207 0 343.5 -126.5t136.5 -317.5q0 -190 -136.5 -316.5t-343.5 -126.5q-208 0 -345 126.5t-137 316.5q0 130 75 252l435 716h86zM561 810q-178 0 -293.5 -107t-115.5 -271q0 -163 116 -270t293 -107t292 107t115 270q0 164 -115 271t-292 107z
" />
    <glyph glyph-name="six.tosf" unicode="&#xe016;" 
d="M365 820q112 56 241 56q207 0 343.5 -126.5t136.5 -317.5q0 -190 -136.5 -316.5t-343.5 -126.5q-208 0 -345 126.5t-137 316.5q0 130 75 252l435 716h86zM606 810q-178 0 -293.5 -107t-115.5 -271q0 -163 116 -270t293 -107t292 107t115 270q0 164 -115 271t-292 107z
" />
    <glyph glyph-name="three.lf" unicode="&#xe017;" horiz-adv-x="1077" 
d="M479 1411q196 0 320 -103t124 -262q0 -128 -63.5 -213t-175.5 -125q122 -37 196 -126t74 -211q0 -94 -39 -168.5t-104.5 -120t-147 -69.5t-172.5 -24q-255 0 -418 163l47 49q147 -144 369 -144q105 0 191.5 32.5t142.5 105.5t56 176q0 137 -110.5 219.5t-274.5 82.5h-204
v70h204q156 0 255.5 79t99.5 224q0 130 -105.5 213.5t-269.5 83.5q-108 0 -196 -46.5t-146 -123.5l-52 44q66 89 167 141.5t232 52.5z" />
    <glyph glyph-name="three.osf" unicode="&#xe018;" horiz-adv-x="1053" 
d="M470 1029q195 0 318.5 -103t123.5 -262q0 -130 -66.5 -215t-181.5 -123q125 -38 201.5 -126t76.5 -212q0 -75 -25.5 -138.5t-69 -107.5t-102 -75t-125 -45.5t-138.5 -14.5q-255 0 -416 163l46 48q146 -144 369 -144q106 0 191.5 33t141 106t55.5 175q0 138 -110.5 221
t-273.5 83h-202v67h202q156 0 254.5 79.5t98.5 225.5q0 131 -104 214.5t-268 83.5q-109 0 -195.5 -46t-144.5 -124l-54 42q63 89 165.5 142t232.5 53z" />
    <glyph glyph-name="three.tosf" unicode="&#xe019;" 
d="M566 1029q195 0 318.5 -103t123.5 -262q0 -130 -66.5 -215t-181.5 -123q125 -38 201.5 -126t76.5 -212q0 -75 -25.5 -138.5t-69 -107.5t-102 -75t-125 -45.5t-138.5 -14.5q-255 0 -416 163l46 48q146 -144 369 -144q106 0 191.5 33t141 106t55.5 175q0 138 -110.5 221
t-273.5 83h-202v67h202q156 0 254.5 79.5t98.5 225.5q0 131 -104 214.5t-268 83.5q-109 0 -195.5 -46t-144.5 -124l-54 42q63 89 165.5 142t232.5 53z" />
    <glyph glyph-name="two.lf" unicode="&#xe01a;" horiz-adv-x="1081" 
d="M94 1182q138 229 404 229q134 0 231.5 -56t145 -148.5t47.5 -207.5q0 -117 -51 -213t-138 -187l-508 -531h755v-68h-862v56l560 585q170 175 170 358q0 148 -93 245.5t-259 97.5q-225 0 -349 -202z" />
    <glyph glyph-name="two.osf" unicode="&#xe01b;" horiz-adv-x="1040" 
d="M85 827q156 202 400 202q182 0 289 -99.5t107 -244.5q0 -119 -73.5 -219t-227.5 -191l-344 -207h713v-68h-842v58l433 266q146 90 206.5 176t60.5 182q0 117 -85.5 197.5t-238.5 80.5q-207 0 -347 -176z" />
    <glyph glyph-name="two.tosf" unicode="&#xe01c;" 
d="M192 827q156 202 400 202q182 0 289 -99.5t107 -244.5q0 -119 -73.5 -219t-227.5 -191l-344 -207h713v-68h-842v58l433 266q146 90 206.5 176t60.5 182q0 117 -85.5 197.5t-238.5 80.5q-207 0 -347 -176z" />
    <glyph glyph-name="uni030C.alt001" unicode="&#xe01d;" horiz-adv-x="1" 
d="M-632 1051l16 389h71l-27 -389h-60z" />
    <glyph glyph-name="uni0328.alt001" unicode="&#xe01e;" horiz-adv-x="1" 
d="M-409 -326q-74 -83 -174 -83q-81 0 -132.5 46t-51.5 122q0 69 49.5 137.5t140.5 143.5l34 -40q-158 -144 -158 -237q0 -51 34 -81.5t89 -30.5q74 0 130 67z" />
    <glyph glyph-name="uni0328.alt002" unicode="&#xe01f;" horiz-adv-x="1" 
d="M-551 9q-92 -51 -138 -103t-46 -118q0 -61 44 -99t114 -38q97 0 166 71l39 -45q-86 -86 -209 -86q-98 0 -160 53.5t-62 138.5q0 88 56.5 150.5t169.5 120.5z" />
    <glyph glyph-name="uni0328.alt003" unicode="&#xe020;" horiz-adv-x="1" 
d="M-409 -326q-71 -83 -174 -83q-81 0 -132 44.5t-51 117.5q0 91 77 162t224 135l25 -50q-132 -59 -196 -116t-64 -124q0 -50 34 -79.5t89 -29.5q74 0 130 67z" />
    <glyph glyph-name="uni0328.alt004" unicode="&#xe021;" horiz-adv-x="1" 
d="M-372 -323q-86 -86 -209 -86q-98 0 -160 53.5t-62 138.5q0 52 21 95.5t64 80.5t86 64t111 62l33 -38q-64 -36 -100.5 -59.5t-74.5 -56t-55 -67.5t-17 -76q0 -61 44 -99t114 -38q97 0 166 71z" />
    <glyph glyph-name="zero.lf" unicode="&#xe022;" horiz-adv-x="1415" 
d="M707 1411q116 0 218.5 -49t179 -138.5t121 -225t44.5 -297.5q0 -163 -44.5 -298.5t-121 -225t-179 -139t-218.5 -49.5t-218 49.5t-178.5 139t-121 225t-44.5 298.5q0 162 44.5 297.5t121 225t178.5 138.5t218 49zM707 1342q-100 0 -188.5 -44t-155 -124t-105 -202.5
t-38.5 -270.5t38.5 -270.5t105 -203.5t155 -125t188.5 -44q101 0 189.5 44t155 125t105 203.5t38.5 270.5t-38.5 270.5t-105 202.5t-155 124t-189.5 44z" />
    <glyph glyph-name="zero.osf" unicode="&#xe023;" horiz-adv-x="1322" 
d="M661 1029q146 0 266.5 -63.5t192.5 -183t72 -271.5q0 -154 -72 -274.5t-192.5 -184t-266.5 -63.5t-266.5 65.5t-192 185.5t-71.5 271q0 152 71.5 271.5t192 183t266.5 63.5zM661 963q-195 0 -327 -125t-132 -327q0 -133 61.5 -238t166 -161.5t231.5 -56.5t231.5 55
t166.5 160t62 241q0 202 -132.5 327t-327.5 125z" />
    <glyph glyph-name="zero.tosf" unicode="&#xe024;" 
d="M600 1029q215 0 361 -142.5t146 -375.5q0 -158 -69 -278.5t-183.5 -182.5t-254.5 -62q-105 0 -197.5 37.5t-161.5 104.5t-109 166t-40 215q0 155 69 274.5t183.5 181.5t255.5 62zM600 964q-186 0 -311.5 -123.5t-125.5 -329.5q0 -205 126 -331.5t311 -126.5
q186 0 311 124t125 334q0 206 -125 329.5t-311 123.5z" />
    <glyph glyph-name="uniFB00" unicode="&#xfb00;" horiz-adv-x="1746" 
d="M817 869h-441v-869h-69v869h-250v64h250v162q0 356 306 356q138 0 248 -70l-26 -58q-97 62 -218 62q-127 0 -184 -74.5t-57 -215.5v-162h441v-64zM1673 869h-441v-869h-69v869h-250v64h250v162q0 356 306 356q138 0 248 -70l-26 -58q-97 62 -218 62q-127 0 -184 -74.5
t-57 -215.5v-162h441v-64z" />
    <glyph glyph-name="fi" unicode="&#xfb01;" horiz-adv-x="1340" 
d="M817 869h-441v-869h-69v869h-250v64h250v162q0 356 306 356q138 0 248 -70l-26 -58q-97 62 -218 62q-127 0 -184 -74.5t-57 -215.5v-162h441v-64zM1150 0h-70v933h70v-933zM1115 1327q22 0 37 -15t15 -37t-15 -36.5t-37 -14.5t-36.5 14.5t-14.5 36.5t14.5 37t36.5 15z
" />
    <glyph glyph-name="fl" unicode="&#xfb02;" horiz-adv-x="1340" 
d="M817 869h-441v-869h-69v869h-250v64h250v162q0 356 306 356q138 0 248 -70l-26 -58q-97 62 -218 62q-127 0 -184 -74.5t-57 -215.5v-162h441v-64zM1150 0h-70v1440h70v-1440z" />
    <glyph glyph-name="uniFB03" unicode="&#xfb03;" horiz-adv-x="2196" 
d="M817 869h-441v-869h-69v869h-250v64h250v162q0 356 306 356q138 0 248 -70l-26 -58q-97 62 -218 62q-127 0 -184 -74.5t-57 -215.5v-162h441v-64zM1673 869h-441v-869h-69v869h-250v64h250v162q0 356 306 356q138 0 248 -70l-26 -58q-97 62 -218 62q-127 0 -184 -74.5
t-57 -215.5v-162h441v-64zM2006 0h-70v933h70v-933zM1971 1327q22 0 37 -15t15 -37t-15 -36.5t-37 -14.5t-36.5 14.5t-14.5 36.5t14.5 37t36.5 15z" />
    <glyph glyph-name="uniFB04" unicode="&#xfb04;" horiz-adv-x="2196" 
d="M817 869h-441v-869h-69v869h-250v64h250v162q0 356 306 356q138 0 248 -70l-26 -58q-97 62 -218 62q-127 0 -184 -74.5t-57 -215.5v-162h441v-64zM1673 869h-441v-869h-69v869h-250v64h250v162q0 356 306 356q138 0 248 -70l-26 -58q-97 62 -218 62q-127 0 -184 -74.5
t-57 -215.5v-162h441v-64zM2006 0h-70v1440h70v-1440z" />
    <glyph glyph-name="uniFB05" unicode="&#xfb05;" horiz-adv-x="1468" 
d="M1385 869h-464v-557q0 -128 62 -192.5t173 -64.5q137 0 224 79l34 -51q-106 -94 -263 -94q-143 0 -221 81.5t-78 240.5v558h-228v64h228v123q0 153 -82.5 241t-218.5 88t-219 -88t-83 -241v-1056h-69v1060q0 182 104.5 286.5t266.5 104.5t266 -104.5t104 -286.5v-127h464
v-64z" />
    <glyph glyph-name="uniFB06" unicode="&#xfb06;" horiz-adv-x="1864" 
d="M808 780q-56 41 -144 70t-185 29q-125 0 -204.5 -52t-79.5 -142q0 -148 241 -175l131 -14q299 -31 299 -239q0 -128 -108 -198t-285 -70q-221 0 -378 118l35 55q135 -108 344 -108q144 0 232.5 50.5t88.5 148.5q0 154 -242 178l-132 13q-153 15 -225.5 78t-72.5 160
q0 121 98.5 191t256.5 70q107 0 203 -30t160 -77zM1780 869h-463v-557q0 -128 62 -192.5t172 -64.5q134 0 224 79l35 -51q-106 -94 -264 -94q-143 0 -221 81.5t-78 240.5v558h-229v64h229v315h70v-315h463v-64z" />
    <glyph glyph-name="uniFEFF" unicode="&#xfeff;" horiz-adv-x="0" 
 />
    </font>
</defs>
</svg>
