<?xml version="1.0" encoding="utf-8"?>
<!-- Generator: Adobe Illustrator 22.0.1, SVG Export Plug-In . SVG Version: 6.00 Build 0)  -->
<svg version="1.1" id="Layer_1" xmlns="http://www.w3.org/2000/svg" xmlns:xlink="http://www.w3.org/1999/xlink" x="0px" y="0px"
	 viewBox="0 0 363.7 1327.9" style="enable-background:new 0 0 363.7 1327.9;" xml:space="preserve">
<style type="text/css">
	.st0{opacity:0.5;}
	.st1{fill:#FFFFFF;}
</style>
<g class="st0">
	<path class="st1" d="M222.4,1171.1c-49.2,0-68,22.5-68,58.3c0,33.2,13.9,55.7,37.5,71.2l-10.7,15c-28.4-18.2-45-49.2-45-86.7
		c0-45,27.3-78.7,84-78.7h139.2v20.9l-33.7-1.1c20.9,13.9,38,38,38,75.5c0,49.8-23,82.4-66.9,82.4c-43.3,0-63.7-38-63.7-79.7v-77.1
		L222.4,1171.1L222.4,1171.1z M250.3,1245.5c0,33.2,12.9,61.5,46,61.5c33.2,0,48.7-21.9,48.7-63.7c0-36.4-21.4-72.3-55.1-72.3h-39.6
		L250.3,1245.5L250.3,1245.5z"/>
	<path class="st1" d="M249.7,1079.5c-64.2,0-113.5-45.5-113.5-108.1c0-44.4,24.1-76.5,56.7-92.6H0V858h359.4v20.9l-54.6-1.1
		c33.7,15.5,58.9,51.4,58.9,93.7C363.7,1034,313.9,1079.5,249.7,1079.5z M249.7,877.2c-54.1,0-94.7,36.4-94.7,91.5
		c0,54,40.7,88.8,94.7,88.8s95.3-34.8,95.3-88.8C345,913.6,303.8,877.2,249.7,877.2z"/>
	<path class="st1" d="M141.1,795.3v-22.5l163.8-72.3c10.7-4.8,27.8-9.6,27.8-9.6s-17.1-4.3-27.8-9.1l-163.8-70.6v-21.4l222.7,98.5
		v6.4L141.1,795.3z"/>
	<path class="st1" d="M46.9,534.7c-10.2,0-17.7-8.6-17.7-17.7c0-9.1,7.5-17.7,17.7-17.7c10.7,0,17.7,8.6,17.7,17.7
		C64.5,526.1,57.6,534.7,46.9,534.7z M141.1,527.2v-20.9h218.4v20.9H141.1z"/>
	<path class="st1" d="M309.1,436.2l-8-18.2c25.7-11.8,43.9-32.6,43.9-69.6c0-33.2-16.6-54.6-41.8-54.6c-30,0-37.5,20.9-49.8,60.5
		c-10.7,36.9-23.6,67.4-62.6,67.4c-32.1,0-54.6-28.9-54.6-65.3c0-33.7,16.1-55.7,41.2-69.6l9.6,16.1c-18.7,10.7-32.6,28.4-32.6,53.5
		c0,27.8,14.4,45.5,35.3,45.5c25.2,0,33.2-13.4,46-56.2c11.8-39.6,26.2-72.8,66.9-72.8c34.8,0,61,26.8,61,75.5
		C363.7,394.5,338.6,423.9,309.1,436.2z"/>
	<path class="st1" d="M345,102.8c0-36.4-14.5-60.5-34.3-76.5l12.3-14c24.1,19.3,40.7,49.8,40.7,90.5c0,69-50.8,114-113.5,114
		c-62.6,0-114-47.6-114-109.7C136.2,40.7,188.2-1,254.5,0v195.4C307.5,193.8,345,159,345,102.8z M237.4,21.4c-45,3.2-83,31-83,85.6
		c0,49.8,35.3,82.4,83,87.8V21.4z"/>
</g>
</svg>
